<svg id="Layer_1" data-name="Layer 1" xmlns="http://www.w3.org/2000/svg" xmlns:xlink="http://www.w3.org/1999/xlink" viewBox="0 0 723.13 147.41"><defs><style>.cls-1,.cls-17,.cls-21,.cls-38,.cls-45{fill:none;}.cls-2{fill:#405965;}.cls-3{fill:#414042;}.cls-16,.cls-4{fill:#fff;}.cls-5{fill:#ead7b1;}.cls-16,.cls-20,.cls-22,.cls-44,.cls-5{fill-rule:evenodd;}.cls-6{clip-path:url(#clip-path);}.cls-7{fill:url(#linear-gradient);}.cls-8{clip-path:url(#clip-path-2);}.cls-9{fill:url(#linear-gradient-2);}.cls-10{clip-path:url(#clip-path-3);}.cls-11{fill:url(#linear-gradient-3);}.cls-12{clip-path:url(#clip-path-4);}.cls-13{clip-path:url(#clip-path-5);}.cls-14{clip-path:url(#clip-path-6);}.cls-15{fill:url(#radial-gradient);}.cls-17{stroke:#fff;}.cls-17,.cls-21,.cls-38,.cls-45{stroke-miterlimit:2.61;stroke-width:0;}.cls-18{clip-path:url(#clip-path-7);}.cls-19{fill:url(#radial-gradient-2);}.cls-20{fill:#caa52e;}.cls-21{stroke:#caa52e;}.cls-22,.cls-37{fill:#facb13;}.cls-23{clip-path:url(#clip-path-8);}.cls-24{clip-path:url(#clip-path-9);}.cls-25{fill:url(#linear-gradient-4);}.cls-26{clip-path:url(#clip-path-10);}.cls-27{clip-path:url(#clip-path-11);}.cls-28{fill:url(#linear-gradient-5);}.cls-29{clip-path:url(#clip-path-12);}.cls-30{clip-path:url(#clip-path-13);}.cls-31{fill:url(#linear-gradient-6);}.cls-32{clip-path:url(#clip-path-14);}.cls-33{clip-path:url(#clip-path-15);}.cls-34{fill:url(#linear-gradient-7);}.cls-35{clip-path:url(#clip-path-16);}.cls-36{fill:url(#linear-gradient-8);}.cls-38{stroke:#facb13;}.cls-39{clip-path:url(#clip-path-18);}.cls-40{clip-path:url(#clip-path-19);}.cls-41{clip-path:url(#clip-path-20);}.cls-42{clip-path:url(#clip-path-21);}.cls-43{clip-path:url(#clip-path-22);}.cls-44{fill:#ab9276;}.cls-45{stroke:#ab9276;}.cls-46{fill:url(#linear-gradient-9);}.cls-47{fill:url(#linear-gradient-10);}.cls-48{fill:#6e4e32;}.cls-49{fill:#00a651;}</style><clipPath id="clip-path"><path class="cls-1" d="M314.77,6.56l-1.08-.21c-1.83-.37-3.72-.74-5.53-1a.35.35,0,0,0-.28.07.42.42,0,0,0-.14.27l-.05,1.43,0,.85c-1.5-.2-2.91-.35-4.39-.5l-1.19-.13V4.89a.36.36,0,0,0-.33-.35c-2.12-.21-4.3-.38-6.47-.52a.33.33,0,0,0-.27.1.32.32,0,0,0-.12.26V6.77c-1.88-.08-3.81-.14-5.74-.18V4.16a.36.36,0,0,0-.36-.35h-2.68c-1.25,0-2.53,0-3.79,0a.36.36,0,0,0-.36.35V6.61c-1.87,0-3.8.11-5.74.2V4.41a.35.35,0,0,0-.11-.26.34.34,0,0,0-.27-.1c-2.12.14-4.3.31-6.48.53a.35.35,0,0,0-.32.35V7.35c-2,.21-3.63.42-5.47.67V5.58a.37.37,0,0,0-.13-.27.34.34,0,0,0-.29-.08c-1.38.22-2.87.53-4.32.83-.85.18-1.65.35-2.43.5a.35.35,0,0,0-.29.35V9.55a.29.29,0,0,0,0,.16c.35.69.7,1.36,1.06,2a.32.32,0,0,0,.27.18.33.33,0,0,0,.17,0,175.44,175.44,0,0,1,27.05-2.27c9.16,0,18.13,1.08,28.79,2.75h.06a.4.4,0,0,0,.23-.08.37.37,0,0,0,.13-.27v-.32c.28-.55.57-1.09.86-1.64l.2-.37a.33.33,0,0,0,0-.17V6.91A.35.35,0,0,0,314.77,6.56Z"/></clipPath><linearGradient id="linear-gradient" x1="254.29" y1="7.72" x2="317.95" y2="7.72" gradientUnits="userSpaceOnUse"><stop offset="0" stop-color="#d8b56d"/><stop offset="0.51" stop-color="#edd9b1"/><stop offset="0.53" stop-color="#ecd8af"/><stop offset="1" stop-color="#d8b56b"/></linearGradient><clipPath id="clip-path-2"><path class="cls-1" d="M257.35,12.3a182.76,182.76,0,0,1,29.23-2.45,144.78,144.78,0,0,1,27.29,2.45l-.5.84-1.76,1.65a195.79,195.79,0,0,0-26.26-2.2,177.23,177.23,0,0,0-25.47,2.2Z"/></clipPath><linearGradient id="linear-gradient-2" x1="257.05" y1="12.18" x2="314.28" y2="12.18" gradientUnits="userSpaceOnUse"><stop offset="0" stop-color="#b79644"/><stop offset="0.51" stop-color="#c7a865"/><stop offset="1" stop-color="#b89642"/></linearGradient><clipPath id="clip-path-3"><path class="cls-1" d="M256.19,28.64s14.67-1.72,30.44-2.06a148.77,148.77,0,0,1,28.93,2.16c0,.08-6.17-14.17-6.17-14.17S299,13.25,286.5,12.93a141.89,141.89,0,0,0-24.45,1.75Z"/></clipPath><linearGradient id="linear-gradient-3" x1="255.86" y1="20.82" x2="316.11" y2="20.82" gradientUnits="userSpaceOnUse"><stop offset="0" stop-color="#dbb872"/><stop offset="0.51" stop-color="#e0c28b"/><stop offset="1" stop-color="#dbb872"/></linearGradient><clipPath id="clip-path-4"><path class="cls-1" d="M286.77,26.49a229.64,229.64,0,0,0-37.85,3.28L234.47,48.15c22,14-.23,29.48-.23,50.51s44.05,29.28,51.39,43.31C293,127.94,337,119.7,337,98.66s-22.25-36.49-.23-50.51L322.34,29.77a189.85,189.85,0,0,0-35.57-3.28Z"/></clipPath><clipPath id="clip-path-5"><path class="cls-1" d="M251.34,33.77,240.51,47.31c4.12,3.42,7.17,7.72,7.81,13.32.75,6.65-2.2,13.33-4.7,19.36s-5,12.12-5,18.67a10.69,10.69,0,0,0,.47,3.13c2.48,8,15,14.6,21.93,18.3,5.52,2.92,11.21,5.68,16.53,8.93a47.21,47.21,0,0,1,8.22,5.83,44.9,44.9,0,0,1,7.88-5.83c5.32-3.25,11-6,16.53-8.93,7.45-4,22.4-11.63,22.4-21.43,0-6.55-2.49-12.7-5-18.67s-5.38-12.7-4.64-19.35c.63-5.6,3.71-9.76,7.83-13.18L319.89,33.73a185.5,185.5,0,0,0-33.12-2.9,222,222,0,0,0-35.43,2.94"/></clipPath><clipPath id="clip-path-6"><rect class="cls-1" x="236.38" y="28.66" width="99.49" height="108.62"/></clipPath><radialGradient id="radial-gradient" cx="281.3" cy="84.06" r="52.81" gradientTransform="translate(0.98) scale(1.01 1)" gradientUnits="userSpaceOnUse"><stop offset="0" stop-color="#01a668"/><stop offset="0.39" stop-color="#029d5f"/><stop offset="1" stop-color="#038647"/></radialGradient><clipPath id="clip-path-7"><path class="cls-1" d="M257.23,78.44H314c.47-18.14-9-36.75-28.39-36.75S256.76,60.3,257.23,78.44"/></clipPath><radialGradient id="radial-gradient-2" cx="271.4" cy="72.88" r="38.11" gradientTransform="translate(0.98) scale(1.01 1)" gradientUnits="userSpaceOnUse"><stop offset="0" stop-color="#e0f0e0"/><stop offset="0.14" stop-color="#d7ede1"/><stop offset="0.37" stop-color="#bee5e3"/><stop offset="0.65" stop-color="#96d7e7"/><stop offset="0.99" stop-color="#5ec5ed"/><stop offset="1" stop-color="#5cc4ed"/></radialGradient><clipPath id="clip-path-8"><path class="cls-1" d="M257.21,77.24c0,1.35.06,2.7.18,4,6.57.21,15-.18,15.25,1.07,0,.17.38.08.68,0s.58-.17.41,0c-3,3.34.72,9.09,4.53,12,11.83,9.18,7.51,14.34-2.08,16.41a26.46,26.46,0,0,0,9.43,1.66c10.93,0,18.69-5.86,23.31-14.19-7.09-2.81-19.08-4.28-21.86-10.57-.92-2.07,4.73-6,5.61-7.68,1.71-3.28-9.39-2.58-9.08-2.81l-26.18-.14c.08,0,0,.07-.2.17"/></clipPath><clipPath id="clip-path-9"><rect class="cls-1" x="254.58" y="75.35" width="56.85" height="39.42"/></clipPath><linearGradient id="linear-gradient-4" x1="254.99" y1="98.64" x2="310.5" y2="98.64" gradientUnits="userSpaceOnUse"><stop offset="0" stop-color="#fff"/><stop offset="0.18" stop-color="#fffbf6"/><stop offset="0.48" stop-color="#feefdd"/><stop offset="0.86" stop-color="#fcdbb5"/><stop offset="1" stop-color="#fbd3a4"/></linearGradient><clipPath id="clip-path-10"><path class="cls-1" d="M257.21,76.89c-1.47,7.78,1.91,19.85,9,27.38,5.79,6.18,14,8.85,17.35,8.36.67-.1,1.24.21,1.46-.19,7.28-13.72-19.28-29.08-.41-35.19,3.46-1.12-19.32-.18-27.37-.18"/></clipPath><clipPath id="clip-path-11"><rect class="cls-1" x="254.52" y="75.43" width="39.37" height="39.42"/></clipPath><linearGradient id="linear-gradient-5" x1="256.27" y1="94.58" x2="293.63" y2="94.58" gradientUnits="userSpaceOnUse"><stop offset="0" stop-color="#00aeb4"/><stop offset="0.18" stop-color="#09b0b6"/><stop offset="0.47" stop-color="#22b5ba"/><stop offset="0.84" stop-color="#4abec2"/><stop offset="1" stop-color="#5ec2c6"/></linearGradient><clipPath id="clip-path-12"><path class="cls-1" d="M310.58,60.67c-6.72.07-5.89,8-10.53,8.54-1.09.11-4-.95-5.92-1.25-2.6-.42-7.71,5.82-8.82,9.09H314a46.51,46.51,0,0,0-2.92-16.34,4.21,4.21,0,0,0-.5,0Z"/></clipPath><clipPath id="clip-path-13"><path class="cls-1" d="M310.58,60.67c-6.72.07-6.1,7.91-10.73,8.4-1.1.11-3.82-.81-5.72-1.11-2.6-.42-7.71,5.82-8.82,9.09H314a46.51,46.51,0,0,0-2.92-16.34,4.21,4.21,0,0,0-.5,0Z"/></clipPath><linearGradient id="linear-gradient-6" x1="299.84" y1="59.59" x2="299.84" y2="76.94" gradientUnits="userSpaceOnUse"><stop offset="0" stop-color="#19a576"/><stop offset="0.33" stop-color="#149d6d"/><stop offset="0.87" stop-color="#068654"/><stop offset="1" stop-color="#027f4d"/></linearGradient><clipPath id="clip-path-14"><path class="cls-1" d="M287.31,92.87c4.66,4.86,13.2,5.51,19.48,8.75C311.57,95,314,86.24,314,77.41l-28.58-.34c-2.6,4.05-4,9.66,1.87,15.8"/></clipPath><clipPath id="clip-path-15"><rect class="cls-1" x="279.09" y="76.12" width="39.08" height="28.03"/></clipPath><linearGradient id="linear-gradient-7" x1="280.79" y1="91.11" x2="314.63" y2="91.11" gradientUnits="userSpaceOnUse"><stop offset="0" stop-color="#e9b68b"/><stop offset="0.3" stop-color="#e4af82"/><stop offset="0.8" stop-color="#d69c69"/><stop offset="1" stop-color="#cf935d"/></linearGradient><clipPath id="clip-path-16"><path class="cls-1" d="M298.89,76.46H314a49.8,49.8,0,0,0-.48-6.22c-1.46-.19-3.7-.73-5.28-.92l-.29,0c-2.58,0-4.16,4.13-9.07,7.16"/></clipPath><linearGradient id="linear-gradient-8" x1="307.92" y1="69.32" x2="307.92" y2="77.1" xlink:href="#linear-gradient-6"/><clipPath id="clip-path-18"><path class="cls-1" d="M272.44,55.19a.59.59,0,1,0,.59-.58.58.58,0,0,0-.59.58"/></clipPath><clipPath id="clip-path-19"><polygon class="cls-1" points="271.86 61.39 271.38 69.36 274.79 69.36 274.3 61.39 271.86 61.39"/></clipPath><clipPath id="clip-path-20"><rect class="cls-1" x="270.96" y="59.92" width="4.18" height="1.37"/></clipPath><clipPath id="clip-path-21"><polygon class="cls-1" points="275.97 64.26 275.97 65.39 274.81 65.39 274.81 64.26 273.66 64.26 273.66 65.39 272.5 65.39 272.5 64.26 271.35 64.26 271.35 65.39 270.19 65.39 270.19 64.26 269.04 64.26 269.04 76.27 277.12 76.27 277.12 65.39 277.12 64.26 275.97 64.26"/></clipPath><clipPath id="clip-path-22"><path class="cls-1" d="M271.11,57.36v.2H275v-.2c0-.79-.88-1.44-1.95-1.44s-1.94.65-1.94,1.44"/></clipPath><linearGradient id="linear-gradient-9" x1="268.99" y1="70.24" x2="277.41" y2="70.24" gradientUnits="userSpaceOnUse"><stop offset="0" stop-color="#dbdad9"/><stop offset="0.35" stop-color="#e2e2e2"/><stop offset="0.92" stop-color="#f7f9fb"/><stop offset="1" stop-color="#fafdff"/></linearGradient><linearGradient id="linear-gradient-10" x1="271.15" y1="59.1" x2="275.43" y2="59.1" xlink:href="#linear-gradient-9"/></defs><path class="cls-2" d="M358.12,24c0-6.52,5.27-11.39,12.23-11.39a12,12,0,0,1,9.27,4.22v.48l-4.06,3.44h-.47a6.6,6.6,0,0,0-4.77-2.13,5.38,5.38,0,0,0,0,10.75,6.56,6.56,0,0,0,4.77-2.13h.47l4.06,3.45v.47a12,12,0,0,1-9.37,4.23C363.43,35.38,358.12,30.51,358.12,24Z"/><path class="cls-2" d="M382.08,24c0-6.52,5.27-11.39,12.27-11.39S406.62,17.47,406.62,24s-5.28,11.39-12.27,11.39S382.08,30.51,382.08,24Zm17.71,0a5.44,5.44,0,1,0-5.44,5.37A5.3,5.3,0,0,0,399.79,24Z"/><path class="cls-2" d="M431.86,13V35h-4.4l-9.59-11V35h-6.7V13h4.4l9.6,11V13Z"/><path class="cls-2" d="M449.19,35H442.5V18.41h-6.69V13h20.07v5.41h-6.69Z"/><path class="cls-2" d="M479.23,34.47l-.3.5h-6.66l-4.16-7.7h-1.59V35h-6.69V13H469.9c5.78,0,8.89,2.84,8.89,7.34a6.38,6.38,0,0,1-4,6Zm-12.71-11.6h3.11A2.13,2.13,0,0,0,472,20.71a2.21,2.21,0,0,0-2.34-2.3h-3.11Z"/><path class="cls-2" d="M482.3,24c0-6.52,5.28-11.39,12.27-11.39S506.84,17.47,506.84,24s-5.27,11.39-12.27,11.39S482.3,30.51,482.3,24ZM500,24a5.44,5.44,0,1,0-5.44,5.37A5.3,5.3,0,0,0,500,24Z"/><path class="cls-2" d="M526.47,35H511.4V13h6.69V29.56h8.38Z"/><path class="cls-2" d="M552.59,34.47l-.3.5h-6.83l-1.28-3.31H536.3L535,35h-6.52l-.31-.5L538.23,13h4.26Zm-10.1-7.2-2.13-5.61-2.3,5.61Z"/><path class="cls-2" d="M577.9,24c0,6.63-4.42,11-11.62,11H556V13h10.24C573.48,13,577.9,17.4,577.9,24Zm-6.82,0c0-3.58-2.13-5.58-5.07-5.58h-3.28V29.56H566C569,29.56,571.08,27.57,571.08,24Z"/><path class="cls-2" d="M581.35,24c0-6.52,5.27-11.39,12.26-11.39S605.88,17.47,605.88,24s-5.27,11.39-12.27,11.39S581.35,30.51,581.35,24Zm17.71,0a5.45,5.45,0,1,0-5.45,5.37A5.3,5.3,0,0,0,599.06,24Z"/><path class="cls-2" d="M629.84,34.47l-.3.5h-6.66l-4.16-7.7h-1.59V35h-6.69V13h10.07c5.78,0,8.89,2.84,8.89,7.34a6.38,6.38,0,0,1-4,6Zm-12.71-11.6h3.11a2.12,2.12,0,0,0,2.33-2.16,2.21,2.21,0,0,0-2.33-2.3h-3.11Z"/><path class="cls-2" d="M641,13V35H634.3V13Z"/><path class="cls-2" d="M668.9,34.47l-.3.5h-6.83l-1.28-3.31h-7.88L651.26,35h-6.52l-.31-.5L654.54,13h4.26Zm-10.1-7.2-2.13-5.61-2.3,5.61Z"/><path class="cls-2" d="M366,54.08v3h7.64v5.07H366v3h10.14v5.41H359.3v-22H376v5.41Z"/><path class="cls-2" d="M388.06,59.66c0-6.53,5.27-11.39,12.27-11.39s12.27,4.86,12.27,11.39-5.28,11.39-12.27,11.39S388.06,66.18,388.06,59.66Zm17.71,0A5.44,5.44,0,1,0,400.33,65,5.3,5.3,0,0,0,405.77,59.66Z"/><path class="cls-2" d="M423.51,48.67v12c0,2.63,1.62,4.39,4,4.39s4-1.76,4-4.39v-12h6.59V60.3c0,6.46-4.26,10.75-10.61,10.75s-10.71-4.29-10.71-10.75V48.67Z"/><path class="cls-2" d="M465.58,49.18l-10.1,21.46h-4.13L441.21,49.18l.31-.51h6.82l5.07,12.51,5.31-12.51h6.56Z"/><path class="cls-2" d="M475.68,48.67v22H469v-22Z"/><path class="cls-2" d="M503.29,59.62c0,6.63-4.43,11-11.62,11H481.42v-22h10.25C498.86,48.67,503.29,53.07,503.29,59.62Zm-6.82,0c0-3.59-2.13-5.58-5.07-5.58h-3.28V65.23h3.28C494.34,65.23,496.47,63.24,496.47,59.66Z"/><path class="cls-2" d="M506.73,59.66c0-6.53,5.28-11.39,12.27-11.39s12.27,4.86,12.27,11.39S526,71.05,519,71.05,506.73,66.18,506.73,59.66Zm17.71,0A5.44,5.44,0,1,0,519,65,5.3,5.3,0,0,0,524.44,59.66Z"/><path class="cls-2" d="M555.23,70.13l-.31.51h-6.65l-4.16-7.7h-1.59v7.7h-6.69v-22H545.9c5.78,0,8.89,2.84,8.89,7.34a6.39,6.39,0,0,1-4,6ZM542.52,58.54h3.11A2.12,2.12,0,0,0,548,56.38a2.21,2.21,0,0,0-2.33-2.3h-3.11Z"/><path class="cls-2" d="M566.38,48.67v22h-6.69v-22Z"/><path class="cls-2" d="M594.29,70.13l-.3.51h-6.83l-1.28-3.31H578l-1.35,3.31h-6.52l-.31-.51,10.11-21.46h4.26Zm-10.1-7.19-2.13-5.61-2.3,5.61Z"/><path class="cls-2" d="M627.27,59.89a10.8,10.8,0,0,1-3.41,8,11.91,11.91,0,0,1-8.35,3.21c-6.69,0-11.76-4.87-11.76-11.39s5.14-11.39,11.76-11.39a12.17,12.17,0,0,1,9.33,4.22V53l-4.06,3.44h-.47a6.13,6.13,0,0,0-4.56-2.13A5.38,5.38,0,0,0,615.92,65a5.08,5.08,0,0,0,3.14-1,4,4,0,0,0,1.39-1.76h-4.67V57.56H626.7l.47.41A17.64,17.64,0,0,1,627.27,59.89Z"/><path class="cls-2" d="M638.45,54.08v3h7.64v5.07h-7.64v3h10.14v5.41H631.76v-22h16.73v5.41Z"/><path class="cls-2" d="M672.92,70.13l-.3.51H666l-4.15-7.7h-1.59v7.7h-6.7v-22H663.6c5.78,0,8.88,2.84,8.88,7.34a6.39,6.39,0,0,1-4,6Zm-12.7-11.59h3.11a2.12,2.12,0,0,0,2.33-2.16,2.21,2.21,0,0,0-2.33-2.3h-3.11Z"/><path class="cls-2" d="M699.55,70.13l-.3.51h-6.83l-1.28-3.31h-7.88l-1.35,3.31h-6.52l-.31-.51,10.11-21.46h4.26Zm-10.1-7.19-2.13-5.61L685,62.94Z"/><path class="cls-2" d="M718.07,70.64H703v-22h6.7V65.23h8.38Z"/><path class="cls-2" d="M381.17,95.29c0,6.63-4.43,11-11.63,11H359.3v-22h10.24C376.74,84.34,381.17,88.74,381.17,95.29Zm-6.83,0c0-3.59-2.13-5.58-5.07-5.58H366V100.9h3.28C372.21,100.9,374.34,98.91,374.34,95.33Z"/><path class="cls-2" d="M384.61,95.33c0-6.53,5.27-11.39,12.27-11.39s12.27,4.86,12.27,11.39-5.27,11.39-12.27,11.39S384.61,101.85,384.61,95.33Zm17.71,0a5.44,5.44,0,1,0-5.44,5.37A5.3,5.3,0,0,0,402.32,95.33Z"/><path class="cls-2" d="M428.58,89.75v3h7.63v5.07h-7.63v3h10.14v5.41H421.88v-22h16.73v5.41Z"/><path class="cls-2" d="M442.26,103v-.48l3.11-3.85h.47a9.59,9.59,0,0,0,5.78,2.5c1.62,0,2.67-.51,2.67-1.35,0-1.19-1.48-1.29-3.68-1.9-3.38-.94-7.37-2.83-7.37-7.16,0-4,3.62-6.79,8.82-6.79,3.72,0,7.1,1.42,8.76,3.28v.47l-3.15,3.72h-.47a7.8,7.8,0,0,0-5-2.23c-1.29,0-2.13.47-2.13,1.25,0,1.08,1.52,1.58,3,2,3.78,1.09,8.07,2.37,8.07,7.34,0,4.56-4.26,6.93-9.16,6.93C447.84,106.72,444.25,105.16,442.26,103Z"/><path class="cls-2" d="M477.1,106.31h-6.69V89.75h-6.69V84.34h20.07v5.41H477.1Z"/><path class="cls-2" d="M507.25,105.8l-.31.51h-6.83L498.83,103H491l-1.36,3.31h-6.52l-.3-.51,10.1-21.46h4.26Zm-10.11-7.2L495,93l-2.3,5.61Z"/><path class="cls-2" d="M532.56,95.29c0,6.63-4.43,11-11.63,11H510.69v-22h10.24C528.13,84.34,532.56,88.74,532.56,95.29Zm-6.83,0c0-3.59-2.13-5.58-5.07-5.58h-3.28V100.9h3.28C523.6,100.9,525.73,98.91,525.73,95.33Z"/><path class="cls-2" d="M536,95.33c0-6.53,5.27-11.39,12.27-11.39s12.26,4.86,12.26,11.39-5.27,11.39-12.26,11.39S536,101.85,536,95.33Zm17.71,0a5.45,5.45,0,1,0-5.44,5.37A5.3,5.3,0,0,0,553.71,95.33Z"/><path class="cls-3" d="M374.5,127.38a6.76,6.76,0,0,1-7,6.8,7,7,0,1,1,0-13.92,7.16,7.16,0,0,1,5.66,2.58v.23l-2,1.69h-.22a4.42,4.42,0,0,0-3.41-1.59,4,4,0,0,0,.06,8.09,3.66,3.66,0,0,0,3.74-2.7h-3.78v-2.38h6.73l.23.21A8.47,8.47,0,0,1,374.5,127.38Z"/><path class="cls-3" d="M376.51,127.22c0-4,3.16-7,7.35-7s7.35,3,7.35,7a7.36,7.36,0,0,1-14.7,0Zm11.41,0a4.07,4.07,0,1,0-4.06,4A4,4,0,0,0,387.92,127.22Z"/><path class="cls-3" d="M407.09,120.71l-5.8,13.22h-2.63l-4.19-9.58c-.33-.77-.53-1-.8-1.14a.9.9,0,0,0-.66.06l-.21-.1-.56-2.19.09-.22a2.71,2.71,0,0,1,1.73-.5c1.63,0,2.5.83,3.16,2.39l2.81,6.88,3.73-9H407Z"/><path class="cls-3" d="M412.81,123.15v2.79h5v2.52h-5v2.82h6.54v2.65h-9.76V120.51h9.76v2.64Z"/><path class="cls-3" d="M434.37,133.45l-.11.23a3.18,3.18,0,0,1-1.81.5c-2,0-2.75-1.18-3.62-2.85-.43-.85-1.17-2.44-2-2.44h-1.05v5h-3.22V120.51h5.84c3.41,0,5.2,1.63,5.2,4.27a3.82,3.82,0,0,1-2.79,3.76,4.44,4.44,0,0,1,.79,1.15c.39.85.76,1.61,1.47,1.61a1.38,1.38,0,0,0,.53-.14l.21.1Zm-6-6.77a1.71,1.71,0,0,0,1.9-1.73,1.75,1.75,0,0,0-1.9-1.8h-2.64v3.53Z"/><path class="cls-3" d="M449.15,120.51v13.42h-2.33l-6.42-8v8h-3.22V120.51h2.31l6.44,8v-8Z"/><path class="cls-3" d="M452.19,127.22c0-4,3.16-7,7.35-7s7.35,3,7.35,7a7.36,7.36,0,0,1-14.7,0Zm11.42,0a4.07,4.07,0,1,0-4.07,4A4,4,0,0,0,463.61,127.22Z"/><path class="cls-3" d="M488.24,127.2c0,4-2.74,6.73-7.06,6.73H475.3V120.51h5.88C485.5,120.51,488.24,123.19,488.24,127.2Zm-3.3,0a3.72,3.72,0,0,0-3.88-4.07h-2.54v8.13h2.54A3.71,3.71,0,0,0,484.94,127.22Z"/><path class="cls-3" d="M490.5,127.22c0-4,3.16-7,7.35-7s7.35,3,7.35,7a7.36,7.36,0,0,1-14.7,0Zm11.41,0a4.07,4.07,0,1,0-4.06,4A4,4,0,0,0,501.91,127.22Z"/><path class="cls-3" d="M516.83,123.15v2.79h5v2.52h-5v2.82h6.54v2.65h-9.76V120.51h9.76v2.64Z"/><path class="cls-3" d="M525.64,131.86v-.29l1.49-1.77h.23a5,5,0,0,0,3.57,1.65c1.18,0,2-.54,2-1.32,0-1-1.24-1.28-2.72-1.8-1.82-.62-4-1.5-4-4.09s2.25-4,5-4a6,6,0,0,1,4.76,2v.31l-1.48,1.67h-.27a4,4,0,0,0-2.95-1.38c-1,0-1.76.44-1.76,1.2s.95,1.22,2,1.61c2.19.76,4.75,1.59,4.75,4.44,0,2.7-2.29,4.07-5.18,4.07A6.72,6.72,0,0,1,525.64,131.86Z"/><path class="cls-3" d="M545.18,123.15v10.78H542V123.15h-4.17v-2.64h11.58v2.64Z"/><path class="cls-3" d="M564,133.51l-.13.23a3.41,3.41,0,0,1-1.75.44,2.86,2.86,0,0,1-1.8-.56,5.62,5.62,0,0,1-1.4-2.05h-5.6l-.93,2.36H549l5.74-13.42h2.79l4.29,9.62c.41.93.68,1.17,1.05,1.17a1,1,0,0,0,.46-.14l.18.1Zm-9.79-4.17H558l-1.9-4.89Z"/><path class="cls-3" d="M579.29,127.2c0,4-2.75,6.73-7.06,6.73h-5.88V120.51h5.88C576.54,120.51,579.29,123.19,579.29,127.2Zm-3.3,0a3.72,3.72,0,0,0-3.88-4.07h-2.54v8.13h2.54A3.71,3.71,0,0,0,576,127.22Z"/><path class="cls-3" d="M581.54,127.22c0-4,3.16-7,7.35-7s7.35,3,7.35,7a7.36,7.36,0,0,1-14.7,0Zm11.42,0a4.07,4.07,0,1,0-4.07,4A4,4,0,0,0,593,127.22Z"/><path class="cls-3" d="M617.6,127.2c0,4-2.75,6.73-7.06,6.73h-5.89V120.51h5.89C614.85,120.51,617.6,123.19,617.6,127.2Zm-3.31,0a3.72,3.72,0,0,0-3.88-4.07h-2.54v8.13h2.54A3.71,3.71,0,0,0,614.29,127.22Z"/><path class="cls-3" d="M619.85,127.22c0-4,3.16-7,7.35-7s7.35,3,7.35,7a7.36,7.36,0,0,1-14.7,0Zm11.42,0a4.07,4.07,0,1,0-4.07,4A4,4,0,0,0,631.27,127.22Z"/><path class="cls-3" d="M645.46,127.22a3.92,3.92,0,0,0,4,4,4.42,4.42,0,0,0,3.41-1.59h.22l2,1.66v.22a7.16,7.16,0,0,1-5.66,2.63,7,7,0,1,1,0-13.92,7.18,7.18,0,0,1,5.62,2.62v.23l-2,1.65h-.22a4.42,4.42,0,0,0-3.41-1.59A3.92,3.92,0,0,0,645.46,127.22Z"/><path class="cls-3" d="M661.09,123.15v2.79h5v2.52h-5v2.82h6.54v2.65h-9.76V120.51h9.76v2.64Z"/><path class="cls-3" d="M684.36,133.51l-.13.23a3.41,3.41,0,0,1-1.75.44,2.86,2.86,0,0,1-1.8-.56,5.62,5.62,0,0,1-1.4-2.05h-5.59l-.93,2.36h-3.39l5.74-13.42h2.79l4.29,9.62c.41.93.68,1.17,1,1.17a.92.92,0,0,0,.46-.14l.18.1Zm-9.79-4.17h3.82l-1.9-4.89Z"/><path class="cls-3" d="M698.57,133.45l-.11.23a3.18,3.18,0,0,1-1.81.5c-2,0-2.75-1.18-3.62-2.85-.43-.85-1.17-2.44-2-2.44h-1v5h-3.22V120.51h5.84c3.4,0,5.2,1.63,5.2,4.27a3.82,3.82,0,0,1-2.79,3.76,4.44,4.44,0,0,1,.79,1.15c.39.85.76,1.61,1.46,1.61a1.38,1.38,0,0,0,.54-.14l.21.1Zm-6-6.77a1.72,1.72,0,0,0,1.9-1.73,1.75,1.75,0,0,0-1.9-1.8H690v3.53Z"/><path class="cls-3" d="M714.92,133.51l-.12.23a3.47,3.47,0,0,1-1.76.44,2.81,2.81,0,0,1-1.79-.56,5.63,5.63,0,0,1-1.41-2.05h-5.59l-.93,2.36h-3.39l5.74-13.42h2.79l4.29,9.62c.42.93.68,1.17,1.06,1.17a.91.91,0,0,0,.45-.14l.19.1Zm-9.25-14.2-.7-1.2v-.22l4.42-2.77h.22l1.2,1.94v.23l-4.91,2Zm-.53,10H709l-1.89-4.89Z"/><path class="cls-4" d="M328.12,61.28c.63-5.57,4.56-9.39,9.11-12.28l.81-.52L322.85,29.19l-.33-.06q-2.72-.52-5.45-.95c-5.55-.75-9.47-1.25-12.9-1.59l-2.82-.22h-.1l-.85-.06h-.22l-.23,0q-3.13-.21-6.29-.31h0l-.75,0h0l-.63,0c-7.68-.16-14.47.1-19.31.39h0c-1.67.11-12.5,1.18-14.52,1.42l-.32.05c-2.46.33-7.52,1.12-9.36,1.41l-15.2,19.29.81.52c4.55,2.89,8.49,6.71,9.11,12.28s-2.33,11.8-4.39,16.76c-2.77,6.66-5.34,13.24-5.34,20.56a15.47,15.47,0,0,0,.7,4.63c1.51,4.87,5.27,8.79,9.22,11.9a100.7,100.7,0,0,0,15.16,9.37c5.39,2.86,11,5.56,16.19,8.74,3.47,2.11,8.09,5.23,10,8.89l.78,1.49.78-1.49c1.91-3.66,6.54-6.78,10-8.89,5.2-3.18,10.79-5.88,16.19-8.74a100.6,100.6,0,0,0,15.15-9.37c4-3.11,7.71-7,9.23-11.9a15.8,15.8,0,0,0,.7-4.63c0-7.32-2.58-13.9-5.35-20.56C330.45,73.08,327.51,66.73,328.12,61.28Z"/><polygon class="cls-5" points="304.39 7.19 307.46 7.66 307.49 5.8 304.39 7.19"/><polygon class="cls-5" points="276.99 4.72 276.96 6.52 278.74 6.4 276.99 4.72"/><polygon class="cls-5" points="292.81 6.38 294.6 6.49 294.56 4.7 292.81 6.38"/><g class="cls-6"><rect class="cls-7" x="254.29" y="1.51" width="63.66" height="12.43"/></g><g class="cls-8"><rect class="cls-9" x="257.05" y="9.57" width="57.24" height="5.22"/></g><g class="cls-10"><rect class="cls-11" x="255.86" y="12.4" width="60.24" height="16.82"/></g><path class="cls-5" d="M289.8,26.3l-8.84.11a31,31,0,0,1,.56-5,6,6,0,0,1,2.19-3.17,3.74,3.74,0,0,1,3.2-.49,4.39,4.39,0,0,1,2.48,2.13,9.92,9.92,0,0,1,1.16,3.62,11.3,11.3,0,0,1,0,2.84Z"/><path class="cls-5" d="M299,15.38c-1.41.09-2.68,1-2.58,2.12s.78,6.49.78,6.49l5.68.41-1-7.33S300.39,15.3,299,15.38Z"/><g class="cls-13"><g class="cls-14"><rect class="cls-15" x="235.44" y="28.66" width="101.57" height="110.81"/></g></g><path class="cls-1" d="M251.34,33.77,240.51,47.31c4.12,3.42,7.17,7.72,7.81,13.32.75,6.65-2.2,13.33-4.7,19.36s-5,12.12-5,18.67a10.69,10.69,0,0,0,.47,3.13c2.48,8,15,14.6,21.93,18.3,5.52,2.92,11.21,5.68,16.53,8.93a46.69,46.69,0,0,1,8.05,5.93,46.69,46.69,0,0,1,8.05-5.93c5.32-3.25,11-6,16.53-8.93,7.45-4,22.4-11.63,22.4-21.43,0-6.55-2.49-12.7-5-18.67s-5.44-12.71-4.7-19.36c.63-5.6,3.77-9.75,7.89-13.17L319.89,33.73a185.5,185.5,0,0,0-33.12-2.9,222,222,0,0,0-35.43,2.94"/><polygon class="cls-16" points="253.33 51.99 252.44 54.85 249.54 54.84 251.89 56.6 250.99 59.46 253.33 57.69 255.67 59.46 254.77 56.6 257.12 54.84 254.22 54.85 253.33 51.99"/><polygon class="cls-17" points="253.33 51.99 252.44 54.85 249.54 54.84 251.89 56.6 250.99 59.46 253.33 57.69 255.67 59.46 254.77 56.6 257.12 54.84 254.22 54.85 253.33 51.99"/><polygon class="cls-16" points="250.89 71.41 250 74.27 247.1 74.27 249.45 76.03 248.55 78.88 250.89 77.11 253.23 78.88 252.33 76.03 254.67 74.27 251.78 74.27 250.89 71.41"/><polygon class="cls-17" points="250.89 71.41 250 74.27 247.1 74.27 249.45 76.03 248.55 78.88 250.89 77.11 253.23 78.88 252.33 76.03 254.67 74.27 251.78 74.27 250.89 71.41"/><polygon class="cls-16" points="247.73 88.82 246.84 91.67 243.95 91.67 246.29 93.43 245.39 96.29 247.73 94.52 250.07 96.29 249.17 93.43 251.52 91.67 248.62 91.67 247.73 88.82"/><polygon class="cls-17" points="247.73 88.82 246.84 91.67 243.95 91.67 246.29 93.43 245.39 96.29 247.73 94.52 250.07 96.29 249.17 93.43 251.52 91.67 248.62 91.67 247.73 88.82"/><polygon class="cls-16" points="285.44 119.1 284.55 121.96 281.65 121.96 284 123.72 283.1 126.57 285.44 124.8 287.78 126.57 286.88 123.72 289.23 121.96 286.33 121.96 285.44 119.1"/><polygon class="cls-17" points="285.44 119.1 284.55 121.96 281.65 121.96 284 123.72 283.1 126.57 285.44 124.8 287.78 126.57 286.88 123.72 289.23 121.96 286.33 121.96 285.44 119.1"/><polygon class="cls-16" points="302.91 112.04 302.02 114.9 299.12 114.89 301.47 116.66 300.57 119.51 302.91 117.74 305.25 119.51 304.35 116.66 306.69 114.89 303.8 114.9 302.91 112.04"/><polygon class="cls-17" points="302.91 112.04 302.02 114.9 299.12 114.89 301.47 116.66 300.57 119.51 302.91 117.74 305.25 119.51 304.35 116.66 306.69 114.89 303.8 114.9 302.91 112.04"/><polygon class="cls-16" points="267.8 112.04 268.69 114.9 271.59 114.89 269.25 116.66 270.14 119.51 267.8 117.74 265.46 119.51 266.36 116.66 264.02 114.89 266.91 114.9 267.8 112.04"/><polygon class="cls-17" points="267.8 112.04 268.69 114.9 271.59 114.89 269.25 116.66 270.14 119.51 267.8 117.74 265.46 119.51 266.36 116.66 264.02 114.89 266.91 114.9 267.8 112.04"/><polygon class="cls-16" points="253.92 102.76 254.81 105.62 257.7 105.62 255.35 107.38 256.25 110.23 253.92 108.46 251.57 110.23 252.48 107.38 250.13 105.62 253.03 105.62 253.92 102.76"/><polygon class="cls-17" points="253.92 102.76 254.81 105.62 257.7 105.62 255.35 107.38 256.25 110.23 253.92 108.46 251.57 110.23 252.48 107.38 250.13 105.62 253.03 105.62 253.92 102.76"/><g class="cls-18"><rect class="cls-19" x="232.42" y="40.59" width="87.53" height="64.59"/></g><path class="cls-20" d="M257.22,76.55h16v.68h-16v-.16h0c0-.17,0-.35,0-.52"/><path class="cls-21" d="M257.22,76.55h16v.68h-16v-.16h0C257.21,76.9,257.22,76.72,257.22,76.55Z"/><path class="cls-20" d="M257.35,73.45l15.92,3.12-.14.66-15.82-3.1c0-.22,0-.45,0-.68"/><path class="cls-21" d="M257.35,73.45l15.92,3.12-.14.66-15.82-3.1C257.32,73.91,257.33,73.68,257.35,73.45Z"/><path class="cls-20" d="M257.7,70.23l15.64,6.37-.26.62-15.47-6.3.09-.69"/><path class="cls-21" d="M257.7,70.23l15.64,6.37-.26.62-15.47-6.3Z"/><path class="cls-20" d="M258.33,66.75l15.07,9.89-.38.57-14.84-9.75.15-.71"/><path class="cls-21" d="M258.33,66.75l15.07,9.89-.38.57-14.84-9.75Z"/><path class="cls-20" d="M259.38,62.87,273.46,76.7l-.49.48L259.15,63.6c.07-.24.15-.49.23-.73"/><path class="cls-21" d="M259.38,62.87,273.46,76.7l-.49.48L259.15,63.6C259.22,63.36,259.3,63.11,259.38,62.87Z"/><path class="cls-20" d="M261.05,58.5,273.5,76.77l-.57.37-12.2-17.91c.1-.24.21-.49.32-.73"/><path class="cls-21" d="M261.05,58.5,273.5,76.77l-.57.37-12.2-17.91C260.83,59,260.94,58.74,261.05,58.5Z"/><path class="cls-20" d="M263.71,53.67l9.81,23.17-.63.26-9.63-22.73.45-.7"/><path class="cls-21" d="M263.71,53.67l9.81,23.17-.63.26-9.63-22.73Z"/><path class="cls-20" d="M267.76,48.76l5.78,28.16-.68.13-5.68-27.71.58-.58"/><path class="cls-21" d="M267.76,48.76l5.78,28.16-.68.13-5.68-27.71Z"/><path class="cls-20" d="M273.41,44.63,273.53,77h-.68l-.13-32,.69-.38"/><path class="cls-21" d="M273.41,44.63,273.53,77h-.68l-.13-32Z"/><path class="cls-20" d="M280.4,42.17l-6.88,34.9-.68-.13,6.83-34.62.73-.15"/><path class="cls-21" d="M280.4,42.17l-6.88,34.9-.68-.13,6.83-34.62Z"/><path class="cls-20" d="M288.13,41.79,273.48,77.14l-.63-.26,14.56-35.14.72,0"/><path class="cls-21" d="M288.13,41.79,273.48,77.14l-.63-.26,14.56-35.14Z"/><path class="cls-20" d="M295.88,43.7,273.44,77.2l-.57-.37,22.36-33.4.65.27"/><path class="cls-21" d="M295.88,43.7,273.44,77.2l-.57-.37,22.36-33.4Z"/><path class="cls-20" d="M302.68,48l-29.3,29.22-.49-.47,29.27-29.2.52.45"/><path class="cls-21" d="M302.68,48l-29.3,29.22-.49-.47,29.27-29.2Z"/><path class="cls-20" d="M307.87,54.22,273.32,77.29l-.39-.56L307.5,53.64c.13.19.25.38.37.58"/><path class="cls-21" d="M307.87,54.22,273.32,77.29l-.39-.56L307.5,53.64C307.63,53.83,307.75,54,307.87,54.22Z"/><path class="cls-20" d="M311.37,61.45,273.24,77.32,273,76.7l38.17-15.89c.07.21.15.43.23.64"/><path class="cls-21" d="M311.37,61.45,273.24,77.32,273,76.7l38.17-15.89C311.21,61,311.29,61.24,311.37,61.45Z"/><path class="cls-20" d="M313.36,69.15l-40.2,8.19-.13-.67,40.22-8.19c0,.23.08.45.11.67"/><path class="cls-21" d="M313.36,69.15l-40.2,8.19-.13-.67,40.22-8.19C313.29,68.71,313.33,68.93,313.36,69.15Z"/><path class="cls-20" d="M314,77l-40.93.31v-.68L314,76.34c0,.23,0,.46,0,.68"/><path class="cls-21" d="M314,77l-40.93.31v-.68L314,76.34C314,76.57,314,76.8,314,77Z"/><path class="cls-20" d="M273.19,66.7A10.41,10.41,0,0,1,283.68,77h-21A10.4,10.4,0,0,1,273.19,66.7"/><path class="cls-22" d="M273.19,67.59a9.42,9.42,0,0,1,9.63,9.19H263.57a9.42,9.42,0,0,1,9.62-9.19"/><g class="cls-23"><g class="cls-24"><rect class="cls-25" x="254.99" y="75.54" width="55.51" height="46.21"/></g></g><g class="cls-26"><g class="cls-27"><rect class="cls-28" x="256.27" y="76.47" width="37.36" height="36.22"/></g><path class="cls-1" d="M285,112.79h0a25.87,25.87,0,0,1-21.16-11.49c-4.51-6.44-7-15-7-24.23a.36.36,0,0,1,.36-.35h27.34a.36.36,0,0,1,.36.3.36.36,0,0,1-.25.39c-3.5,1.07-5.58,2.53-6.39,4.45-1.34,3.18,1,7.47,3.44,12,3.18,5.88,6.78,12.55,3.6,18.73A.36.36,0,0,1,285,112.79ZM257.57,77.43c.1,16.33,8.61,34,27.19,34.65,2.84-5.8-.63-12.22-3.69-17.88-2.54-4.69-4.94-9.12-3.47-12.61.72-1.73,2.33-3.1,4.89-4.16H257.57Z"/></g><g class="cls-30"><rect class="cls-31" x="284.61" y="59.59" width="30.47" height="17.36"/></g><path class="cls-16" d="M268.94,97.31c-3.77-7.67-1.84-12.43,3.42-15.35-2.39,4.22,1.09,7.78,6.13,11.72a25.35,25.35,0,0,0-9.42,3.56Z"/><g class="cls-32"><g class="cls-33"><rect class="cls-34" x="280.79" y="76.47" width="33.84" height="29.28"/></g></g><g class="cls-35"><rect class="cls-36" x="298.47" y="69.32" width="18.89" height="7.78"/></g><rect class="cls-37" x="271.15" y="57.93" width="3.81" height="1.99"/><rect class="cls-38" x="271.15" y="57.93" width="3.81" height="1.99"/><path class="cls-16" d="M286.87,53.61a19.94,19.94,0,0,1,7.26.87c1.8.65,2.49.62,4.15,2.17l-2.52,1.59c-2.54-2.82-5.71-3.3-9-4.24-1.37-.4-1.32-.36.08-.39"/><path class="cls-16" d="M297.16,56.64c2,.14,4.38-1.39,5.35-1.58.33-.06.94.53.65.81s-1.29.58-1.61.75a11.73,11.73,0,0,1,1.8-.78c.49.07.8.88.58,1a21.29,21.29,0,0,0-2.05.64,9,9,0,0,1,2.05-.64c.26,0,.56.81.19,1-1.11.71-2.58.74-3.75,1.26.44,1.76,1.6,3.76,1.54,5.59-.09,2.83-1.66,5.49-2.13,8.14-.19,1-.06,1.31-.28.11-.62-3.47-.85-9.62-2.48-11.89a9,9,0,0,0-2-1.07,8.11,8.11,0,0,0-1.91-.25c-.44.13-1.51.36-2,.48.15-.82.8-3.15,2.37-3Z"/><path class="cls-44" d="M297.92,86.91l-.06.91,1.22.89,0-1L298,86.86Zm-.55,16.19,0,.9.1.08h1.24Zm.06-1.81,0,.93,2.13,1.58,0-1Zm.06-1.8-.05.94,2.06,1.49,0-1Zm.06-1.81,0,.92,1.92,1.46v-1Zm.06-1.81,0,1,1.81,1.32,0-1Zm.06-1.81-.05,1,1.69,1.26,0-1Zm.07-1.81-.06,1,1.57,1.14,0-1Zm.06-1.8-.06,1,1.44,1.06,0-1Zm.06-1.81-.06,1,1.34,1,0-1Z"/><path class="cls-45" d="M297.27,103.21l0,.9.11.08h1.24Zm.06-1.81,0,.9,2.13,1.59,0-1Zm.06-1.81,0,.9,2,1.51,0-1Z"/><polygon class="cls-46" points="277.41 76.55 268.99 76.55 268.99 63.92 277.38 63.92 277.41 76.55"/><path class="cls-47" d="M274.81,63.73l-3.58,0,.11-1.83-.19-.24,0-5.16a6.34,6.34,0,0,0,.81-.84c.39-.49.66-1.13,1.17-1.14.74,0,.52.6.85,1.08a14.26,14.26,0,0,0,1.25,1.4l.08,2.94.08,1.79-.74.16Z"/><rect class="cls-37" x="271.37" y="58.03" width="3.42" height="1.59"/><path class="cls-5" d="M272.12,15.36c1.41.08,2.68,1,2.58,2.11s-.77,6.49-.77,6.49l-5.69.41,1-7.33S270.71,15.27,272.12,15.36Z"/><path class="cls-48" d="M270.67,17.72c-.18,2-.43,3.29-.61,5.24,1-.09,1.71-.09,2.49-.17.24-1.92.43-3.34.67-5.26C272.73,16.41,271.44,16.56,270.67,17.72Z"/><path class="cls-48" d="M301,23c-.18-1.95-.43-3.29-.61-5.24-.77-1.16-2.06-1.31-2.55-.19.24,1.92.43,3.34.67,5.26C299.33,22.87,300,22.87,301,23Z"/><path class="cls-48" d="M289.34,26.13l0-.72h0c-.22-2.49-.4-6.47-3.53-6.47s-3.22,4.12-3.41,6.57h0l0,.6Z"/><path class="cls-48" d="M285.79,18c4.06,0,4.16,4.87,4.48,7.9l0,.15,0,.1h.79l0-.23h0c-.07-.82-.15-1.71-.27-2.6l1.87,0,.24,2.6h0l.05.19h.73l0-.17h0l-.25-2.6,3.36.13.13,1,1.5.15c.84.08,1.68.09,2.51.16l2.24.18L303,23.84c1.45.11,2.89.24,4.33.38L308,27l.09.42.73,0-.11-.69-.62-2.41,5.26.63,1.15,2.61h0l.11.24h0l.09.21.89.12v-.18h0l-5.74-13.06,2,.32L314,13.4l1.53-3.24a17.77,17.77,0,0,0,.1-3.77c-1.18-.23-7.72-1.55-8.24-1.48L302.77,7V4.3l-8.22-.65v0l-2.83,2.65-1.82,0V3.5l-8.23,0V6.3l-1.79.06L277,3.68l-8.23.66V7l-4.65-2.06c-.54-.07-7,1.22-8.23,1.45a17.68,17.68,0,0,0,.1,3.76c1.91,3.91.53,2.48,3.92,5l1.58-.24-5.6,13.15c0,.11,0,.08,0,.08v.18l.84-.12.11-.19h0l1.31-3h0l5.25-.62-.72,2.82,0,.1-.05.55h.68l.34-1.33.57-2.22c1.3-.13,2.6-.25,3.9-.35l-.1,1,2.24-.18c.83-.07,1.67-.08,2.51-.16l1.5-.15.12-1q1.9-.09,3.81-.15l-.2,2-.08,1h.74l0-.33V26h0l.25-2.64,1.93-.05.11-.74-6.51.27c.11-.88.23-1.76.34-2.64l7-.31a18,18,0,0,0-1.17,5.66h0l-.07.71h.75l0-.37h0C281.62,22.91,281.81,18,285.79,18Zm10.92-2.05c-3.5-.21-7-.31-10.49-.32V13c4,0,8,.19,12,.51l.24,1.4-.29.06A3,3,0,0,0,296.71,15.91ZM296,17.76c.07.52.14,1,.2,1.57L293,19.2l-.23-2.75c1.15,0,2.29.09,3.44.16l-.09.18-.2.47Zm5,6.12c-.83-.07-1.67-.08-2.5-.16l-.75-.07-.09-.74c-.23-1.76-.46-3.51-.68-5.26l0-.26.1-.23a2.15,2.15,0,0,1,1.4-1.26,2.69,2.69,0,0,1,2.81,1.31l.12.2,0,.23c.17,1.75.46,3.48.62,5.23l.1,1.1Zm1.35-6.33-.05-.46,0,0c1.12.11,2.24.22,3.36.35l.69,2.7c-1.25-.13-2.49-.25-3.73-.35C302.46,19,302.37,18.29,302.31,17.55Zm10.74,6.59h-.13c-3.32-.44-6.64-.77-10-1l0-.31c-.07-.77-.17-1.53-.27-2.3,3.09.26,6.18.6,9.25,1Zm-1.5-3.4-.13,0-4.34-.54-.69-2.69,4,.52ZM310,17.21l-.13,0-8.14-.86a3.82,3.82,0,0,0-2.52-1.41L299,13.6c3.32.28,6.63.67,9.93,1.14ZM307.46,5.88l0,1.73c-1-.13-2-.26-2.92-.44Zm-12.91-1.1V6.43l-1.67-.07ZM277,4.78l1.7,1.61-1.7.07ZM264.14,5.94l3.05,1.33-3.05.38Zm-6.28,5.84c-1.33-2.55-1.05-1.62-1.05-4.66Q260,6.49,263.25,6V8.66c2.14-.29,4.29-.56,6.44-.78V5.14q3.21-.32,6.44-.52V7.39c2.14-.1,4.28-.18,6.44-.22V4.39c2.14,0,4.28,0,6.43,0V7.15c2.15,0,4.29.1,6.44.2V4.59c2.15.14,4.29.31,6.44.52V7.83c2.14.23,4.29.49,6.44.8V6q3.21.52,6.44,1.17c0,3.12.3,2-1.09,4.71A182,182,0,0,0,284.93,9.5a176.3,176.3,0,0,0-27.05,2.26Zm2.3,2.43L258,12.64a169,169,0,0,1,55.47.06l-1.82,1.56L302.26,13A159.69,159.69,0,0,0,260.16,14.21Zm2.3.55c3.37-.48,6.73-.87,10.11-1.15l-.22,1.3a3.69,3.69,0,0,0-3,1.5l-7.9.83ZM261.07,18h0l4-.51-.71,2.75-4.56.56Zm7.11,4.76,0,.42q-4.86.38-9.71,1l1.11-2.61h0c2.94-.4,5.89-.72,8.84-1C268.34,21.34,268.25,22.06,268.18,22.79Zm.61-5.24c-.07.78-.16,1.55-.26,2.32-1.1.09-2.2.2-3.3.31l.71-2.76c1-.11,1.93-.2,2.89-.29Zm5.37.1c-.22,1.75-.46,3.5-.68,5.26l-.09.74-.75.07c-.83.08-1.67.09-2.5.16L269,24l.1-1.1c.16-1.75.45-3.48.61-5.23l0-.23.13-.2a2.69,2.69,0,0,1,2.81-1.31,2.15,2.15,0,0,1,1.4,1.26l.1.23Zm.27-1.7a2.93,2.93,0,0,0-1.35-.9l.26-1.51c4-.32,8.07-.5,12.13-.51v2.56C281.79,15.62,278.11,15.73,274.43,16Zm4.08,3.3c-1.21,0-2.42.1-3.62.17l.21-1.66.06-.5-.2-.47-.06-.13c1.28-.08,2.56-.14,3.85-.19Zm.75,0,.24-2.78c4.18-.14,8.36-.16,12.54,0l.23,2.76-2.83-.06a4.88,4.88,0,0,1,.42.74l6.45.26c.11.88.23,1.76.34,2.65l-6-.23.05.32c-.46-2.87-1.53-5.63-4.9-5.63a4,4,0,0,0-3.62,1.91Z"/><rect class="cls-2" x="272.3" y="68.43" width="2" height="1.93"/><path class="cls-2" d="M277,98.42a.65.65,0,0,0,0-1.07H275.4v-1A.38.38,0,0,0,275,96h-.89a.38.38,0,0,0-.38.37v1h-3.69a25.6,25.6,0,0,1,8.31-3l1.56-.32-1.25-1c-2.22-1.73-6.21-4.8-6.51-7.8a4.52,4.52,0,0,1,.66-2.77l1.29-2.29-2.31,1.29c-6.55,3.64-6.62,9.66-3.61,15.84h-1v-.56H266v.56h-1.43c-.37.29-.37.64,0,1.07A39.38,39.38,0,0,0,277,98.42ZM272.2,82.15c-2.39,4.21,1,7.58,6,11.51A24.46,24.46,0,0,0,269,97.19C265.4,90,267,85.06,272.2,82.15Z"/><path class="cls-2" d="M293.57,58.17a.35.35,0,0,0-.36.33.34.34,0,1,0,.68.06A.35.35,0,0,0,293.57,58.17Z"/><path class="cls-2" d="M328.12,61.28c.63-5.57,4.56-9.39,9.11-12.28l.81-.52L322.85,29.19l-.33-.06q-2.72-.52-5.45-.95c-5.55-.75-9.47-1.25-12.9-1.59l-2.82-.22h-.1l-.85-.06h-.22l-.23,0q-3.13-.21-6.29-.31h0l-.75,0h0l-.63,0c-7.68-.16-14.47.1-19.31.39h0c-1.67.11-12.5,1.18-14.52,1.42l-.32.05c-2.46.33-7.52,1.12-9.36,1.41l-15.2,19.29.81.52c4.55,2.89,8.49,6.71,9.11,12.28s-2.33,11.8-4.39,16.76c-2.77,6.66-5.34,13.24-5.34,20.56a15.47,15.47,0,0,0,.7,4.63c1.51,4.87,5.27,8.79,9.22,11.9a100.7,100.7,0,0,0,15.16,9.37c5.39,2.86,11,5.56,16.19,8.74,3.47,2.11,8.09,5.23,10,8.89l.78,1.49.78-1.49c1.91-3.66,6.54-6.78,10-8.89,5.2-3.18,10.79-5.88,16.19-8.74a100.6,100.6,0,0,0,15.15-9.37c4-3.11,7.71-7,9.23-11.9a15.8,15.8,0,0,0,.7-4.63c0-7.32-2.58-13.9-5.35-20.56C330.45,73.08,327.51,66.73,328.12,61.28ZM285.8,141.74c-7.31-14-51.19-22.18-51.19-43.14s22.16-36.36.23-50.33L249.24,30q38.73-6.51,73.12,0l14.4,18.3c-21.94,14,.22,29.38.22,50.33S293.11,127.77,285.8,141.74Z"/><polygon class="cls-5" points="264.11 7.69 267.31 7.28 264.11 5.89 264.11 7.69"/><path class="cls-2" d="M328.43,79.65c-2.42-5.84-5.34-12.42-4.61-18.87.59-5.25,3.44-9.35,7.47-12.7l.64-.53L320.39,33.1l-.33-.06c-22.72-4.1-45.85-3.63-68.59,0l-.33.05L239.62,47.55l.65.53c4,3.35,6.87,7.45,7.47,12.7.72,6.45-2.2,13-4.62,18.87-2.52,6.07-5,12.27-5,18.93a11.33,11.33,0,0,0,.51,3.37c2.56,8.24,15,14.86,22.27,18.73,5.49,2.91,11.11,5.64,16.42,8.87a45.32,45.32,0,0,1,7.86,5.8l.62.59.61-.59a45.71,45.71,0,0,1,7.86-5.8c5.31-3.23,10.93-6,16.42-8.87,7.92-4.2,22.78-11.89,22.78-22.1C333.45,91.92,331,85.72,328.43,79.65Zm-18.17,40.27c-5.5,2.91-11.16,5.67-16.47,8.9a46.67,46.67,0,0,0-8,5.91,46.35,46.35,0,0,0-8-5.91c-5.3-3.23-11-6-16.46-8.9-7-3.68-19.39-10.28-21.85-18.22a10.68,10.68,0,0,1-.47-3.12c0-6.53,2.49-12.66,5-18.6s5.42-12.67,4.68-19.29c-.63-5.58-3.68-9.86-7.78-13.27L247,39.73l15.09,14.89c-9.57,16.12-7.28,42,7.13,53.24a26.27,26.27,0,0,0,16.57,5.53c10.46,0,18.14-5.14,23-12.68l12.8,12.62A116.45,116.45,0,0,1,310.26,119.92Zm-21.9-78a2,2,0,0,1,.31,0,25.71,25.71,0,0,1,6,1.33h0l.58.21.09,0h0l.64.27h0l.14.06.18.08.15.07a24.37,24.37,0,0,1,5.22,3.2l.05,0c.25.2.62.51,1,.88h0l.31.29.09.09a28.76,28.76,0,0,1,4.3,5.07h0l0,0,.07.09h0l.36.56h0l-.15-.24.16.24h0l0,0,0,.07h0A35.81,35.81,0,0,1,310.84,60h-.23a6.9,6.9,0,0,0-6.16,3.65c0,.07-.37.65-.6,1a17.8,17.8,0,0,1-1.62,2.55,12.68,12.68,0,0,0,.29-1.39c0-.21.05-.42.07-.64h0c0-.27,0-.77,0-.77-.05-1.67-.87-3.19-1.38-4.78a12.23,12.23,0,0,0,3.24-1.08,1.41,1.41,0,0,0,.23-1.94,2.61,2.61,0,0,0-.13-.5,3.54,3.54,0,0,0-.23-.39,1.64,1.64,0,0,0-.5-.45,1.48,1.48,0,0,0-1.5-.89,7.09,7.09,0,0,0-1.54.62c-.61.28-1.21.56-1.84.78l-.57.17a14.79,14.79,0,0,0-2.16-1.31h0c-.24-.12-.51-.24-.93-.42l-.69-.27a17.76,17.76,0,0,0-4.76-1h0c-.54,0-1.05,0-1.81-.07h-.86c-.59,0-1.69-.13-1.8.7s1,1,1.52,1.13l.07,0,1.6.44h0a19.41,19.41,0,0,1,4.48,1.62,2.42,2.42,0,0,0-1.79,1.55l-.15.37a9,9,0,0,0-.41,1.42h0l-.16.93,1.13-.31c.47-.13,1-.19,1.52-.31a6,6,0,0,1,1.54.3h0a10,10,0,0,1,1.13.47l.09,0a1.74,1.74,0,0,1,.76.49h0a.43.43,0,0,0,0,.07l0,0v0A14.19,14.19,0,0,1,298,66.25h0v.12h0l.08.7h0c0,.27.06.53.09.76l0,.37-1.14-.31-.31-.08h0l-.07,0c-.37-.1-1.13-.29-1.54-.38l-.76-.15A4.84,4.84,0,0,0,291,68.51c-.28.21-.56.44-.83.68a22.72,22.72,0,0,0-1.88,1.93h0l-.29.35c-.48.58-.88,1.12-1.33,1.74-.19.27-.38.55-.55.83h0c-.23.37-.42.7-.56,1a12.49,12.49,0,0,0-.65,1.33h-6.88V63.57h-2.69l-.09-1.49h.8V59.26h-.7v-.9h.56v-.92a2.1,2.1,0,0,0-1.41-1.9l0-.27a1.3,1.3,0,0,0-.91-1.24,1.51,1.51,0,0,0-.37-.06L273,54h0a1.31,1.31,0,0,0-1.05,1.28l0,.29a2.09,2.09,0,0,0-1.36,1.88v.92h.55v.9h-.69v2.82h.85l-.09,1.49h-2.68V76.34h-11c0-.18,0-.35,0-.52a3.35,3.35,0,0,1,0-.66c0-.69.07-.88.13-1.71h0c0-.13,0-.26,0-.39s0-.2,0-.31a29.56,29.56,0,0,1,.41-3.29c0-.22.07-.44.1-.64h0c.18-1,.36-1.82.53-2.55.09-.39.16-.7.25-1l0-.11c.1-.37.21-.76.36-1.29s.35-1.14.55-1.71c.13-.41.28-.81.43-1.21l0-.11a18.23,18.23,0,0,1,1-2.48l.09-.18a35.07,35.07,0,0,1,2-3.63v0a20.75,20.75,0,0,1,1.86-2.66l.34-.43.09-.12a19.36,19.36,0,0,1,2.36-2.56l.07-.06a25.73,25.73,0,0,1,3.77-3l.08-.06a14.56,14.56,0,0,1,1.57-.91,4.06,4.06,0,0,1,.41-.21,24.41,24.41,0,0,1,4.55-1.77l.08,0a19.4,19.4,0,0,1,2-.45h0a27.55,27.55,0,0,1,5.15-.47h.32l1.1,0h.37Zm-30.9,35.14h27A20.61,20.61,0,0,0,282,78l-.21.1-.63.33c-.24.13-.47.27-.68.4h0a5.75,5.75,0,0,0-3,5,9.58,9.58,0,0,0,.42,2.72h0l.09.3v0c.11.34.23.68.36,1,.44,1.14,1,2.23,1.51,3.32.4.78.81,1.55,1.23,2.33,1.81,3.37,3.81,6.91,4.61,10.7a12.14,12.14,0,0,1-.28,6.73h0v0c-.09.24-.19.48-.29.72s-.17.36-.26.54h0c-.7,0-1.4-.07-2.1-.14a24.85,24.85,0,0,1-10.64-3.59c-10.43-6.5-15-19.81-14.69-31.46v0Zm14.09-11.64V64.3h1.15v1.13h1.15V64.3H275v1.13h1.15V64.3h1.15v2.47h-8.05V64.3h1.15v1.13Zm1.7-9.43h0c1.06,0,1.93.65,1.93,1.44v.19h-3.87v-.19C271.31,56.65,272.18,56,273.25,56Zm-.61-.73a.59.59,0,0,1,1.17,0v.06a2.71,2.71,0,0,0-.56,0,3.14,3.14,0,0,0-.61,0Zm2,3.09v.9h-.94v-.9Zm-1.74,0v.9h-1v-.9ZM275.33,60v1.37h-4.16V60Zm-.71,3.59h-2.69l.09-1.49h2.51Zm2.68,4V71h-8.05V67.54Zm0,4.24v4.49h-3V73.82a1.1,1.1,0,1,0-2.17,0v2.45h-2.9V71.78Zm8.45,40.54c2.45-5.16.58-10.37-1.92-15.3-1.43-2.84-3.08-5.59-4.23-8.19-.75-1.7-1.55-3.89-1.25-5.81a5,5,0,0,1,2.23-3.4,16.82,16.82,0,0,1,3.08-1.49h0l.11,0,.44-.15c-2.91,5.46-1.82,10.68,2.69,15.38,2.56,2.68,6.22,4.11,10,5.36l-.2,6h3.42l0-.6c0-1.47-.07-2.95-.11-4.42a42.83,42.83,0,0,1,6.39,2.47,25.08,25.08,0,0,1-20.64,10.21h0Zm14.16-23.83L301,89.63l.43-.41-1.25-1.28a7.14,7.14,0,0,1,2.35,2l.05.17,0,.2-.26,2.59L301,91.53l-.14-.1-.06-.21A13.68,13.68,0,0,0,299.91,88.49Zm.42,3.16-.54,1.24c0-1.15-.08-2.29-.11-3.44a20,20,0,0,1,.62,2.09l0,0Zm.67-3.94,1.18.38.19-.55-1.43-.47a7.6,7.6,0,0,1,1.95.34l.13.06.07.13,1.42,2.48-1.28-.26h0l0,0A7.88,7.88,0,0,0,301,87.71Zm2.27-.85-.08,0-.08,0a7.81,7.81,0,0,0-2.26-.38l1.62-.27-.1-.58-1.9.32a11.7,11.7,0,0,1,1.68-.82l.16-.08.22,0,2.76.44Zm-.4-5.36-.7.28.78-.57Zm-.19.71-.59,2.21v.09l-.09,0a11,11,0,0,0-2.54,1.36l1.87-2.12-.45-.39-1.65,1.87a8.69,8.69,0,0,1,1-2l.09-.12.13-.06Zm-5.28,20,0-.9,2.07,1.54,0,.94Zm1.28,1.88h-1.24l-.1-.08,0-.89Zm.41-14.47,0,.94-1.29-1,0-.9Zm-1.2-1.82,0-.82,0,0,1.09.81,0,.94Zm1.26,3.71,0,.94-1.41-1,0-.9Zm.05,1.89,0,1L297.7,93.2l0-.9Zm.07,1.89,0,1L297.64,95l0-.9Zm.06,1.9,0,.94-1.78-1.32,0-.9Zm.06,1.89,0,.94-1.9-1.41,0-.9Zm.06,1.89,0,.94-2-1.5,0-.9ZM299.67,83a9.22,9.22,0,0,0-.9,1.77V82.64h-.6v2.6A9.39,9.39,0,0,0,297,82.92l0-.15,1.32-2.52,1.36,2.6v.09Zm-2.14,2.19-1.63-1.66-.43.41,2.15,2.19h0a10.15,10.15,0,0,0-2.81-1.58l-.1-.14-.61-2.28,2.22.9.14.06.08.11A9.1,9.1,0,0,1,297.53,85.2Zm-3.64-3.77-.08-.27.74.54Zm.36,3.65.16,0,.15,0,1.68.81-1.67-.28-.1.58,1.62.27a8.49,8.49,0,0,0-2.24.39h-.08l-.08,0-2.05-1.37Zm-.38,2.52.09-.12.11-.06a7.56,7.56,0,0,1,2-.35l-1.49.5.19.56,1.21-.41a8.27,8.27,0,0,0-2.13,2l-.07.06,0,.07-1.29.26Zm.54,2.33a7.75,7.75,0,0,1,2.12-1.85l-1.1,1.09.42.42,1.38-1.37a11.27,11.27,0,0,0-1.15,3.07h0l-.05.12-.1.11-1.29,1.34-.26-2.59v-.19Zm2.27,1.41a12.86,12.86,0,0,1,.55-1.75l-.11,3.17-.48-1.11v-.13Zm3.3,7.54-.15-4.61.53-1.21,0,1.69h.59l0-1.61.58,1.52.56-.21-.62-1.61,1.15,1.2.44-.41-.2-.2L303,91.7l.46,1.69.57-.15-.44-1.65,1,1.39.49-.34L304,91.1l1.5,1,.32-.49-1.41-.9.48.1.17.3.35-.19.64.13.12-.58-.17,0,.36-.34-1.45-1.49,1.77,1,.3-.51L305.05,88l2.17.48.13-.57-1.79-.4,1.84-.06,0-.59-2.05.07,2-.64-.18-.56-1.95.63,1-.66h0l.73-.49-.34-.49L306,85l-1.45-.23,1.89-.2-.07-.59-2.14.24,1.94-.83-.24-.55-2,.84,1.61-1.37-.39-.45-1.6,1.37,1.14-1.81-.5-.31,0,0-.08-.19-.57.23.09-.31-.21-.06.39-.28-.36-.47-1.86,1.36L303,79.68l-.48-.35L301,81.26l.82-2.27-.56-.19-.69,1.9.18-2-.6-.06-.2,2.23-.44-2.21-.59.11.44,2.2-.7-1.35.26-.5-.53-.27-.06.13,0,0-.53.27.22.41-.66,1.26.44-2.19-.58-.12-.45,2.22-.2-2.23-.59,0,.18,2-.7-1.91-.56.2.83,2.27-1.51-1.94-.47.36,1.38,1.77L293.24,80l-.35.47.49.36-.25.07.06.24-.61-.25-.11.28-.44.27,1.14,1.81-1.6-1.37-.39.45,1.61,1.37-2-.84-.24.55,1.94.83L290.39,84l-.06.59,1.89.2-1.3.21-.51-.34-.34.49.53.35,0,.14.16,0,1,.68-1.94-.63-.19.56,2,.64-2-.07,0,.59,1.83.06-1.79.4.13.57,2.17-.48L290,89.07l.3.51,1.78-1-1.45,1.49.35.34-.17,0,.13.58.63-.13.35.19.17-.3.48-.1-1.41.9.32.49,1.5-1-1.08,1.54.49.34,1-1.39-.44,1.65.58.15.45-1.69.18,1.74-.2.2.43.41,1.15-1.2-.61,1.61.56.21.58-1.52,0,1.61h.6l0-1.69.48,1.08L297,97.91c-3.64-1.21-7.09-2.59-9.5-5.11-5.52-5.76-4.59-11-2.3-15h0v0h0v0h0l.1-.16h0v0l.1-.16h0v0l.09-.14h0l1.34,0,27.12.31h0c0,8.8-2.44,17.57-7.2,24.13A43.31,43.31,0,0,0,300,98.88Zm4.68-9.74,1.17,1.21-.54-.11Zm-1.55-6.21.26-1,.49-.2Zm-9.44,0-.81-1.28.52.22Zm-1.37,6.21-.62,1.1-.55.11Zm21.75-12.68H299c5.07-3.13,6.58-7.44,9.33-7.11,1.57.18,3.79.72,5.25.92h0a46.78,46.78,0,0,1,.49,6.15Zm-.95-7c-.72-.12-1.45-.26-2.17-.4s-1.68-.33-2.53-.43a3.17,3.17,0,0,0-1,0c-1.53.29-2.83,1.79-3.84,2.86a24.6,24.6,0,0,1-5,4.33l-1.18.63-11.67-.13c1.51-3.38,6.09-8.73,8.5-8.35,1.17.19,2.75.67,4,1,.14,1.36.27,2.75.51,4.09.09.48.05,1.45.88,1.42s.72-1,.81-1.48a31,31,0,0,1,1.34-4.37c3-1.94,3.07-7.84,8.81-7.9a3,3,0,0,1,.52,0h0a43.55,43.55,0,0,1,2.31,8.74ZM293.66,57.53l3.43-.71c2,.14,4.42-1.53,5.39-1.71a.75.75,0,0,1,.66.41l-2,.95.26.53,2.2-1a1,1,0,0,1,.37.8l-2.36.57.13.57,2.49-.58a.54.54,0,0,1-.14.61c-1.1.71-2.57.74-3.73,1.25.44,1.76,1.59,3.76,1.53,5.57,0,.19,0,.37,0,.56l-1.29-2.67-.54.26,1.67,3.42a15.65,15.65,0,0,1-.5,1.87l-1.31-4.44-.57.16,1.56,5.25a25.61,25.61,0,0,0-1.11,3.71c-.19,1,0,1.26-.23.06-.62-3.45-.65-9.54-2.27-11.81A11,11,0,0,0,295,60.06a7.09,7.09,0,0,0-1.88-.36c-.45.12-1.29.3-1.73.42C291.56,59.3,292.09,57.33,293.66,57.53ZM287.12,54c-1.36-.4-1.31-.36.08-.39a20,20,0,0,1,7.17,1,14.45,14.45,0,0,1,2.93,1.44H297l-2.81.58C292.09,55.2,289.63,54.75,287.12,54Zm35.46,58.6L309.45,99.68c9.7-16.2,7.25-42.36-7.41-53.58a26.19,26.19,0,0,0-16.27-5.35c-10.47,0-18.16,5.21-23.06,12.83l-15-14.78,3.89-4.87c22.66-3.65,45.65-4.13,68.28,0l10.82,13.53c-4.1,3.41-7.15,7.69-7.78,13.27C322.2,67.31,325.13,74,327.62,80s4.95,12.07,4.95,18.6C332.57,104,328,108.79,322.58,112.63Z"/><rect class="cls-49" x="211.34" y="25.92" width="1.62" height="89.74"/><path class="cls-2" d="M3.37,72.2c0-18,14.51-31.34,33.67-31.34A33,33,0,0,1,62.53,52.48v1.31L51.37,63.27h-1.3A18.11,18.11,0,0,0,37,57.41,14.79,14.79,0,0,0,37,87a18.07,18.07,0,0,0,13.12-5.86h1.3l11.16,9.49v1.3C56.86,98.71,48,103.55,36.76,103.55,18,103.55,3.37,90.16,3.37,72.2Z"/><path class="cls-2" d="M130.34,72.85A29.65,29.65,0,0,1,121,94.71a32.77,32.77,0,0,1-23,8.84c-18.41,0-32.37-13.39-32.37-31.35S79.74,40.86,98,40.86a33.56,33.56,0,0,1,25.68,11.62v1.31l-11.17,9.48h-1.3a16.84,16.84,0,0,0-12.56-5.86c-7.81,0-14.23,6.24-14.23,14.89A14.28,14.28,0,0,0,99.09,87a14.08,14.08,0,0,0,8.65-2.69,10.94,10.94,0,0,0,3.81-4.84H98.72v-13h30l1.31,1.11A52.4,52.4,0,0,1,130.34,72.85Z"/><path class="cls-2" d="M157.42,56.86v8.37h21v14h-21v8.37h27.9v14.88H139V42h46V56.86Z"/></svg>