<?xml version="1.0" encoding="UTF-8" standalone="no"?>
<!-- Generator: Adobe Illustrator 21.1.0, SVG Export Plug-In . SVG Version: 6.00 Build 0)  -->

<svg
   xmlns:dc="http://purl.org/dc/elements/1.1/"
   xmlns:cc="http://creativecommons.org/ns#"
   xmlns:rdf="http://www.w3.org/1999/02/22-rdf-syntax-ns#"
   xmlns:svg="http://www.w3.org/2000/svg"
   xmlns="http://www.w3.org/2000/svg"
   xmlns:xlink="http://www.w3.org/1999/xlink"
   xmlns:sodipodi="http://sodipodi.sourceforge.net/DTD/sodipodi-0.dtd"
   xmlns:inkscape="http://www.inkscape.org/namespaces/inkscape"
   version="1.1"
   id="Camada_1"
   x="0px"
   y="0px"
   viewBox="0 0 366 366"
   style="enable-background:new 0 0 366 366;"
   xml:space="preserve"
   inkscape:version="0.91 r13725"
   sodipodi:docname="espaco-imprensa.svg"><metadata
     id="metadata53"><rdf:RDF><cc:Work
         rdf:about=""><dc:format>image/svg+xml</dc:format><dc:type
           rdf:resource="http://purl.org/dc/dcmitype/StillImage" /><dc:title></dc:title></cc:Work></rdf:RDF></metadata><defs
     id="defs51" /><sodipodi:namedview
     pagecolor="#ffffff"
     bordercolor="#666666"
     borderopacity="1"
     objecttolerance="10"
     gridtolerance="10"
     guidetolerance="10"
     inkscape:pageopacity="0"
     inkscape:pageshadow="2"
     inkscape:window-width="859"
     inkscape:window-height="480"
     id="namedview49"
     showgrid="false"
     inkscape:zoom="0.64480874"
     inkscape:cx="-1.5508475"
     inkscape:cy="183"
     inkscape:window-x="10"
     inkscape:window-y="34"
     inkscape:window-maximized="0"
     inkscape:current-layer="Camada_1" /><style
     type="text/css"
     id="style3">
	.st0{clip-path:url(#SVGID_2_);}
	.st1{clip-path:url(#SVGID_4_);}
	.st2{clip-path:url(#SVGID_6_);}
	.st3{clip-path:url(#SVGID_8_);}
</style><g
     id="g5"
     style="fill:#545454;fill-opacity:1"><g
       id="g7"
       style="fill:#545454;fill-opacity:1"><g
         id="g9"
         style="fill:#545454;fill-opacity:1"><defs
           id="defs11"><rect
             id="SVGID_1_"
             width="366"
             height="366" /></defs><clipPath
           id="SVGID_2_"><use
             xlink:href="#SVGID_1_"
             style="overflow:visible;"
             id="use15" /></clipPath><path
           class="st0"
           d="M255.4,174.3l-92.4-77c-3.2-2.7-7.7-3.2-11.4-1.5c-3.8,1.8-6.2,5.6-6.2,9.7v154c0,4.2,2.4,8,6.2,9.7     c1.5,0.7,3,1,4.6,1c2.5,0,4.9-0.9,6.9-2.5l92.4-77c2.5-2,3.9-5.1,3.9-8.3C259.3,179.3,257.8,176.3,255.4,174.3z M166.9,236.6     V128.5l64.9,54.1L166.9,236.6z"
           id="path17"
           clip-path="url(#SVGID_2_)"
           style="fill:#545454;fill-opacity:1" /></g><g
         id="g19"
         style="fill:#545454;fill-opacity:1"><defs
           id="defs21"><rect
             id="SVGID_3_"
             width="366"
             height="366" /></defs><clipPath
           id="SVGID_4_"><use
             xlink:href="#SVGID_3_"
             style="overflow:visible;"
             id="use25" /></clipPath><path
           class="st1"
           d="M166.9,128.5"
           id="path27"
           clip-path="url(#SVGID_4_)"
           style="fill:#545454;fill-opacity:1" /></g><g
         id="g29"
         style="fill:#545454;fill-opacity:1"><defs
           id="defs31"><rect
             id="SVGID_5_"
             width="366"
             height="366" /></defs><clipPath
           id="SVGID_6_"><use
             xlink:href="#SVGID_5_"
             style="overflow:visible;"
             id="use35" /></clipPath><path
           class="st2"
           d="M182.9,0c30.6,0,61.3,7.6,89.2,23.3c5.2,2.9,7,9.5,4.1,14.6c-2.9,5.2-9.5,7-14.6,4.1     c-62.7-35.3-142-24.4-192.9,26.6c-62.8,62.8-62.8,165.1,0,227.9s165.1,62.8,227.9,0s62.8-165.1,0-227.9c-4.2-4.2-4.2-11,0-15.2     s11-4.2,15.2,0c71.2,71.2,71.2,187.1,0,258.3s-187.1,71.2-258.3,0s-71.2-187.1,0-258.3C88.5,18.3,135.5,0,182.9,0L182.9,0z"
           id="path37"
           clip-path="url(#SVGID_6_)"
           style="fill:#545454;fill-opacity:1" /></g><g
         id="g39"
         style="fill:#545454;fill-opacity:1"><defs
           id="defs41"><rect
             id="SVGID_7_"
             width="366"
             height="366" /></defs><clipPath
           id="SVGID_8_"><use
             xlink:href="#SVGID_7_"
             style="overflow:visible;"
             id="use45" /></clipPath><path
           class="st3"
           d="M182.2,365.1"
           id="path47"
           clip-path="url(#SVGID_8_)"
           style="fill:#545454;fill-opacity:1" /></g></g></g></svg>