<?xml version="1.0" encoding="UTF-8" standalone="no"?>
<!-- Generator: Adobe Illustrator 21.1.0, SVG Export Plug-In . SVG Version: 6.00 Build 0)  -->

<svg
   xmlns:dc="http://purl.org/dc/elements/1.1/"
   xmlns:cc="http://creativecommons.org/ns#"
   xmlns:rdf="http://www.w3.org/1999/02/22-rdf-syntax-ns#"
   xmlns:svg="http://www.w3.org/2000/svg"
   xmlns="http://www.w3.org/2000/svg"
   xmlns:sodipodi="http://sodipodi.sourceforge.net/DTD/sodipodi-0.dtd"
   xmlns:inkscape="http://www.inkscape.org/namespaces/inkscape"
   version="1.1"
   id="Layer_1"
   x="0px"
   y="0px"
   viewBox="0 0 366 366"
   style="enable-background:new 0 0 366 366;"
   xml:space="preserve"
   inkscape:version="0.91 r13725"
   sodipodi:docname="fale-conosco-ouvidoria.svg"><metadata
     id="metadata13"><rdf:RDF><cc:Work
         rdf:about=""><dc:format>image/svg+xml</dc:format><dc:type
           rdf:resource="http://purl.org/dc/dcmitype/StillImage" /><dc:title></dc:title></cc:Work></rdf:RDF></metadata><defs
     id="defs11" /><sodipodi:namedview
     pagecolor="#ffffff"
     bordercolor="#666666"
     borderopacity="1"
     objecttolerance="10"
     gridtolerance="10"
     guidetolerance="10"
     inkscape:pageopacity="0"
     inkscape:pageshadow="2"
     inkscape:window-width="859"
     inkscape:window-height="480"
     id="namedview9"
     showgrid="false"
     inkscape:zoom="0.64480874"
     inkscape:cx="183"
     inkscape:cy="183"
     inkscape:window-x="10"
     inkscape:window-y="34"
     inkscape:window-maximized="0"
     inkscape:current-layer="Layer_1" /><g
     id="g3"
     style="fill:#545454;fill-opacity:1"><g
       id="g5"
       style="fill:#545454;fill-opacity:1"><path
         d="M320.3,0H45.8C20.5,0,0,20.5,0,45.8v183c0,25.3,20.5,45.8,45.8,45.8h68.6l91.5,91.5v-91.5h114.4    c25.3,0,45.8-20.5,45.8-45.8v-183C366,20.5,345.5,0,320.3,0z M343.1,228.8c0,12.6-10.3,22.9-22.9,22.9H183v59.2l-59.2-59.2H45.8    c-12.6,0-22.9-10.3-22.9-22.9v-183c0-12.6,10.3-22.9,22.9-22.9h274.5c12.6,0,22.9,10.3,22.9,22.9V228.8z M68.6,91.5h228.8V68.6    H68.6V91.5z M68.6,137.3h228.8v-22.9H68.6V137.3z M68.6,183h137.3v-22.9H68.6V183z"
         id="path7"
         style="fill:#545454;fill-opacity:1" /></g></g></svg>