<svg id="Camada_1" data-name="Camada 1" xmlns="http://www.w3.org/2000/svg" viewBox="0 0 24 24"><defs><style>.cls-1{fill:none;}.cls-2{fill:#fff;}</style></defs><rect class="cls-1" x="5.34" y="5.04" width="13.32" height="13.92"/><g id="Camada_2" data-name="Camada 2"><g id="Camada_1-2" data-name="Camada 1-2"><path class="cls-2" d="M12,19h0a6.77,6.77,0,0,1-5.14-2.23A7.12,7.12,0,0,1,5.13,12,7.12,7.12,0,0,1,6.85,7.27,6.77,6.77,0,0,1,12,5h0a6.77,6.77,0,0,1,5.14,2.23A7.12,7.12,0,0,1,18.87,12a7.12,7.12,0,0,1-1.72,4.73A6.77,6.77,0,0,1,12,19ZM12,6.05a5.72,5.72,0,0,0-5.86,6A5.72,5.72,0,0,0,12,18,5.72,5.72,0,0,0,17.86,12,5.72,5.72,0,0,0,12,6.05Z"/><path class="cls-2" d="M14.29,6.87c6.79,3.23,1.91,13.57-4.9,10.4h0"/><path class="cls-2" d="M11.94,18.29a6.4,6.4,0,0,1-2.73-.64l.36-.76a5.7,5.7,0,0,0,2.36.56,5.22,5.22,0,0,0,4.63-3.16,5.07,5.07,0,0,0-2.45-7l.36-.76a5.86,5.86,0,0,1,3.28,3.7,6.38,6.38,0,0,1-.43,4.46,6.35,6.35,0,0,1-3.17,3.17A5.45,5.45,0,0,1,11.94,18.29Z"/></g></g></svg>