<?xml version="1.0" encoding="UTF-8" standalone="no"?>
<!-- Generator: Adobe Illustrator 21.1.0, SVG Export Plug-In . SVG Version: 6.00 Build 0)  -->

<svg
   xmlns:dc="http://purl.org/dc/elements/1.1/"
   xmlns:cc="http://creativecommons.org/ns#"
   xmlns:rdf="http://www.w3.org/1999/02/22-rdf-syntax-ns#"
   xmlns:svg="http://www.w3.org/2000/svg"
   xmlns="http://www.w3.org/2000/svg"
   xmlns:sodipodi="http://sodipodi.sourceforge.net/DTD/sodipodi-0.dtd"
   xmlns:inkscape="http://www.inkscape.org/namespaces/inkscape"
   version="1.1"
   id="Camada_1"
   x="0px"
   y="0px"
   viewBox="0 0 366 366"
   style="enable-background:new 0 0 366 366;"
   xml:space="preserve"
   inkscape:version="0.91 r13725"
   sodipodi:docname="legislacao-estadual.svg"><metadata
     id="metadata48"><rdf:RDF><cc:Work
         rdf:about=""><dc:format>image/svg+xml</dc:format><dc:type
           rdf:resource="http://purl.org/dc/dcmitype/StillImage" /><dc:title></dc:title></cc:Work></rdf:RDF></metadata><defs
     id="defs46" /><sodipodi:namedview
     pagecolor="#ffffff"
     bordercolor="#666666"
     borderopacity="1"
     objecttolerance="10"
     gridtolerance="10"
     guidetolerance="10"
     inkscape:pageopacity="0"
     inkscape:pageshadow="2"
     inkscape:window-width="1920"
     inkscape:window-height="1056"
     id="namedview44"
     showgrid="false"
     inkscape:snap-others="true"
     inkscape:snap-text-baseline="false"
     inkscape:zoom="0.64480874"
     inkscape:cx="-46.525424"
     inkscape:cy="183"
     inkscape:window-x="0"
     inkscape:window-y="24"
     inkscape:window-maximized="1"
     inkscape:current-layer="Camada_1" /><g
     id="g40"
     style="fill:#999999"><path
       d="M366,214.8c0-0.1,0-0.1,0-0.2c0,0,0-0.1,0-0.1c0-0.1,0-0.2,0-0.4c0-0.1,0-0.2,0-0.2c0-0.1,0-0.2,0-0.3c0-0.1,0-0.2-0.1-0.3   c0-0.1,0-0.2-0.1-0.2c0-0.1-0.1-0.2-0.1-0.4c0,0,0-0.1,0-0.1L311.1,61.1c9.8-3.3,16.9-12.6,16.9-23.6c0-3.3-2.7-5.9-5.9-5.9   c-3.3,0-5.9,2.7-5.9,5.9c0,7.2-5.9,13-13,13c-19.4,0-32.9-5.6-47.3-11.5c-15.4-6.3-31.3-12.9-55.2-13.7c-1.8-5.5-6.2-9.9-11.7-11.8   V5.9c0-3.3-2.7-5.9-5.9-5.9c-3.3,0-5.9,2.7-5.9,5.9v7.7c-5.5,1.9-9.9,6.2-11.7,11.8c-24,0.8-39.8,7.4-55.2,13.7   C95.8,45,82.2,50.6,62.8,50.6c-7.2,0-13-5.9-13-13c0-3.3-2.7-5.9-5.9-5.9s-5.9,2.7-5.9,5.9c0,10.9,7.1,20.3,16.9,23.6L0.4,212.6   c0,0,0,0.1,0,0.1c0,0.1-0.1,0.2-0.1,0.4c0,0.1,0,0.2-0.1,0.2c0,0.1,0,0.2-0.1,0.3c0,0.1,0,0.2,0,0.3c0,0.1,0,0.2,0,0.2   c0,0.1,0,0.2,0,0.4c0,0,0,0.1,0,0.1c0,0.1,0,0.1,0,0.2c0,0.1,0,0.1,0,0.2c0.1,12,7,23.2,19.3,31.4c11.7,7.8,27.2,12.1,43.5,12.1   s31.8-4.3,43.5-12.1c12.3-8.2,19.2-19.3,19.3-31.4c0-0.1,0-0.1,0-0.2c0-0.1,0-0.1,0-0.2c0,0,0-0.1,0-0.1c0-0.1,0-0.2,0-0.4   c0-0.1,0-0.2,0-0.2c0-0.1,0-0.2,0-0.3c0-0.1,0-0.2-0.1-0.3c0-0.1,0-0.2-0.1-0.2c0-0.1-0.1-0.2-0.1-0.4c0,0,0-0.1,0-0.1L71.2,62.1   c17.5-1.4,30.7-6.8,43.5-12.1c14.3-5.9,29.1-12,50.8-12.8c1.9,5.4,6.2,9.7,11.6,11.6v173.5c-7.3,2.5-12.6,9.4-12.6,17.6   c0,4.9,1.9,9.3,5,12.6c-3.1,3.3-5,7.8-5,12.6v63.6h-25.7c-10.2,0-18.6,8.3-18.6,18.6v12.6c0,3.3,2.7,5.9,5.9,5.9h113.8   c3.3,0,5.9-2.7,5.9-5.9v-12.6c0-10.2-8.3-18.6-18.6-18.6h-25.7v-63.6c0-4.9-1.9-9.3-5-12.6c3.1-3.3,5-7.8,5-12.6   c0-8.2-5.3-15.1-12.6-17.6V48.8c5.4-1.8,9.8-6.1,11.6-11.6c21.7,0.8,36.5,6.9,50.8,12.8c12.8,5.3,26,10.7,43.5,12.1l-54.2,150.5   c0,0,0,0.1,0,0.1c0,0.1-0.1,0.2-0.1,0.4c0,0.1,0,0.2-0.1,0.2c0,0.1,0,0.2-0.1,0.3c0,0.1,0,0.2,0,0.3c0,0.1,0,0.2,0,0.2   c0,0.1,0,0.2,0,0.4c0,0,0,0.1,0,0.1c0,0.1,0,0.1,0,0.2c0,0.1,0,0.1,0,0.2c0.1,12,7,23.2,19.3,31.4c11.7,7.8,27.2,12.1,43.5,12.1   c16.4,0,31.8-4.3,43.5-12.1C359,238.2,365.8,227,366,215C366,214.9,366,214.9,366,214.8L366,214.8z M62.8,74l48.5,134.7h-97   L62.8,74z M62.8,246.6c-24.4,0-45.5-11.4-50.1-26.1h100.1C108.3,235.2,87.3,246.6,62.8,246.6z M234,347.4v6.7H132v-6.7   c0-3.7,3-6.7,6.7-6.7h88.5C231,340.7,234,343.7,234,347.4z M176.3,328.8v-63.6c0-3.7,3-6.7,6.7-6.7c3.7,0,6.7,3,6.7,6.7v63.6H176.3   z M183,246.6c-3.7,0-6.7-3-6.7-6.7c0-3.7,3-6.7,6.7-6.7c3.7,0,6.7,3,6.7,6.7C189.7,243.6,186.7,246.6,183,246.6z M183,37.9   C183,37.9,183,37.9,183,37.9C183,37.9,183,37.9,183,37.9c-3.7,0-6.7-3-6.7-6.7c0-3.7,3-6.7,6.7-6.7c0,0,0,0,0,0s0,0,0,0   c3.7,0,6.7,3,6.7,6.7C189.7,34.9,186.7,37.9,183,37.9z M351.6,208.7h-97L303.2,74L351.6,208.7L351.6,208.7z M303.2,246.6   c-24.4,0-45.5-11.4-50.1-26.1h100.1C348.7,235.2,327.6,246.6,303.2,246.6L303.2,246.6z"
       id="path42"
       style="fill:#999999" /></g><g
     style="fill:#999999"
     id="g6912"><path
       style="fill:#999999"
       id="path6914"
       d="M366,214.8c0-0.1,0-0.1,0-0.2c0,0,0-0.1,0-0.1c0-0.1,0-0.2,0-0.4c0-0.1,0-0.2,0-0.2c0-0.1,0-0.2,0-0.3c0-0.1,0-0.2-0.1-0.3   c0-0.1,0-0.2-0.1-0.2c0-0.1-0.1-0.2-0.1-0.4c0,0,0-0.1,0-0.1L311.1,61.1c9.8-3.3,16.9-12.6,16.9-23.6c0-3.3-2.7-5.9-5.9-5.9   c-3.3,0-5.9,2.7-5.9,5.9c0,7.2-5.9,13-13,13c-19.4,0-32.9-5.6-47.3-11.5c-15.4-6.3-31.3-12.9-55.2-13.7c-1.8-5.5-6.2-9.9-11.7-11.8   V5.9c0-3.3-2.7-5.9-5.9-5.9c-3.3,0-5.9,2.7-5.9,5.9v7.7c-5.5,1.9-9.9,6.2-11.7,11.8c-24,0.8-39.8,7.4-55.2,13.7   C95.8,45,82.2,50.6,62.8,50.6c-7.2,0-13-5.9-13-13c0-3.3-2.7-5.9-5.9-5.9s-5.9,2.7-5.9,5.9c0,10.9,7.1,20.3,16.9,23.6L0.4,212.6   c0,0,0,0.1,0,0.1c0,0.1-0.1,0.2-0.1,0.4c0,0.1,0,0.2-0.1,0.2c0,0.1,0,0.2-0.1,0.3c0,0.1,0,0.2,0,0.3c0,0.1,0,0.2,0,0.2   c0,0.1,0,0.2,0,0.4c0,0,0,0.1,0,0.1c0,0.1,0,0.1,0,0.2c0,0.1,0,0.1,0,0.2c0.1,12,7,23.2,19.3,31.4c11.7,7.8,27.2,12.1,43.5,12.1   s31.8-4.3,43.5-12.1c12.3-8.2,19.2-19.3,19.3-31.4c0-0.1,0-0.1,0-0.2c0-0.1,0-0.1,0-0.2c0,0,0-0.1,0-0.1c0-0.1,0-0.2,0-0.4   c0-0.1,0-0.2,0-0.2c0-0.1,0-0.2,0-0.3c0-0.1,0-0.2-0.1-0.3c0-0.1,0-0.2-0.1-0.2c0-0.1-0.1-0.2-0.1-0.4c0,0,0-0.1,0-0.1L71.2,62.1   c17.5-1.4,30.7-6.8,43.5-12.1c14.3-5.9,29.1-12,50.8-12.8c1.9,5.4,6.2,9.7,11.6,11.6v173.5c-7.3,2.5-12.6,9.4-12.6,17.6   c0,4.9,1.9,9.3,5,12.6c-3.1,3.3-5,7.8-5,12.6v63.6h-25.7c-10.2,0-18.6,8.3-18.6,18.6v12.6c0,3.3,2.7,5.9,5.9,5.9h113.8   c3.3,0,5.9-2.7,5.9-5.9v-12.6c0-10.2-8.3-18.6-18.6-18.6h-25.7v-63.6c0-4.9-1.9-9.3-5-12.6c3.1-3.3,5-7.8,5-12.6   c0-8.2-5.3-15.1-12.6-17.6V48.8c5.4-1.8,9.8-6.1,11.6-11.6c21.7,0.8,36.5,6.9,50.8,12.8c12.8,5.3,26,10.7,43.5,12.1l-54.2,150.5   c0,0,0,0.1,0,0.1c0,0.1-0.1,0.2-0.1,0.4c0,0.1,0,0.2-0.1,0.2c0,0.1,0,0.2-0.1,0.3c0,0.1,0,0.2,0,0.3c0,0.1,0,0.2,0,0.2   c0,0.1,0,0.2,0,0.4c0,0,0,0.1,0,0.1c0,0.1,0,0.1,0,0.2c0,0.1,0,0.1,0,0.2c0.1,12,7,23.2,19.3,31.4c11.7,7.8,27.2,12.1,43.5,12.1   c16.4,0,31.8-4.3,43.5-12.1C359,238.2,365.8,227,366,215C366,214.9,366,214.9,366,214.8L366,214.8z M62.8,74l48.5,134.7h-97   L62.8,74z M62.8,246.6c-24.4,0-45.5-11.4-50.1-26.1h100.1C108.3,235.2,87.3,246.6,62.8,246.6z M234,347.4v6.7H132v-6.7   c0-3.7,3-6.7,6.7-6.7h88.5C231,340.7,234,343.7,234,347.4z M176.3,328.8v-63.6c0-3.7,3-6.7,6.7-6.7c3.7,0,6.7,3,6.7,6.7v63.6H176.3   z M183,246.6c-3.7,0-6.7-3-6.7-6.7c0-3.7,3-6.7,6.7-6.7c3.7,0,6.7,3,6.7,6.7C189.7,243.6,186.7,246.6,183,246.6z M183,37.9   C183,37.9,183,37.9,183,37.9C183,37.9,183,37.9,183,37.9c-3.7,0-6.7-3-6.7-6.7c0-3.7,3-6.7,6.7-6.7c0,0,0,0,0,0s0,0,0,0   c3.7,0,6.7,3,6.7,6.7C189.7,34.9,186.7,37.9,183,37.9z M351.6,208.7h-97L303.2,74L351.6,208.7L351.6,208.7z M303.2,246.6   c-24.4,0-45.5-11.4-50.1-26.1h100.1C348.7,235.2,327.6,246.6,303.2,246.6L303.2,246.6z" /></g><g
     id="use6916"
     style="fill:#bfbfbf"><path
       d="m 366,214.8 c 0,-0.1 0,-0.1 0,-0.2 0,0 0,-0.1 0,-0.1 0,-0.1 0,-0.2 0,-0.4 0,-0.1 0,-0.2 0,-0.2 0,-0.1 0,-0.2 0,-0.3 0,-0.1 0,-0.2 -0.1,-0.3 0,-0.1 0,-0.2 -0.1,-0.2 0,-0.1 -0.1,-0.2 -0.1,-0.4 0,0 0,-0.1 0,-0.1 L 311.1,61.1 c 9.8,-3.3 16.9,-12.6 16.9,-23.6 0,-3.3 -2.7,-5.9 -5.9,-5.9 -3.3,0 -5.9,2.7 -5.9,5.9 0,7.2 -5.9,13 -13,13 C 283.8,50.5 270.3,44.9 255.9,39 240.5,32.7 224.6,26.1 200.7,25.3 198.9,19.8 194.5,15.4 189,13.5 l 0,-7.6 C 189,2.6 186.3,0 183.1,0 c -3.3,0 -5.9,2.7 -5.9,5.9 l 0,7.7 c -5.5,1.9 -9.9,6.2 -11.7,11.8 -24,0.8 -39.8,7.4 -55.2,13.7 -14.5,5.9 -28.1,11.5 -47.5,11.5 -7.2,0 -13,-5.9 -13,-13 0,-3.3 -2.7,-5.9 -5.9,-5.9 -3.2,0 -5.9,2.7 -5.9,5.9 0,10.9 7.1,20.3 16.9,23.6 L 0.4,212.6 c 0,0 0,0.1 0,0.1 0,0.1 -0.1,0.2 -0.1,0.4 0,0.1 0,0.2 -0.1,0.2 0,0.1 0,0.2 -0.1,0.3 0,0.1 0,0.2 0,0.3 0,0.1 0,0.2 0,0.2 0,0.1 0,0.2 0,0.4 0,0 0,0.1 0,0.1 0,0.1 0,0.1 0,0.2 0,0.1 0,0.1 0,0.2 0.1,12 7,23.2 19.3,31.4 11.7,7.8 27.2,12.1 43.5,12.1 16.3,0 31.8,-4.3 43.5,-12.1 12.3,-8.2 19.2,-19.3 19.3,-31.4 0,-0.1 0,-0.1 0,-0.2 0,-0.1 0,-0.1 0,-0.2 0,0 0,-0.1 0,-0.1 0,-0.1 0,-0.2 0,-0.4 0,-0.1 0,-0.2 0,-0.2 0,-0.1 0,-0.2 0,-0.3 0,-0.1 0,-0.2 -0.1,-0.3 0,-0.1 0,-0.2 -0.1,-0.2 0,-0.1 -0.1,-0.2 -0.1,-0.4 0,0 0,-0.1 0,-0.1 L 71.2,62.1 c 17.5,-1.4 30.7,-6.8 43.5,-12.1 14.3,-5.9 29.1,-12 50.8,-12.8 1.9,5.4 6.2,9.7 11.6,11.6 l 0,173.5 c -7.3,2.5 -12.6,9.4 -12.6,17.6 0,4.9 1.9,9.3 5,12.6 -3.1,3.3 -5,7.8 -5,12.6 l 0,63.6 -25.7,0 c -10.2,0 -18.6,8.3 -18.6,18.6 l 0,12.6 c 0,3.3 2.7,5.9 5.9,5.9 l 113.8,0 c 3.3,0 5.9,-2.7 5.9,-5.9 l 0,-12.6 c 0,-10.2 -8.3,-18.6 -18.6,-18.6 l -25.7,0 0,-63.6 c 0,-4.9 -1.9,-9.3 -5,-12.6 3.1,-3.3 5,-7.8 5,-12.6 0,-8.2 -5.3,-15.1 -12.6,-17.6 l 0,-173.5 c 5.4,-1.8 9.8,-6.1 11.6,-11.6 21.7,0.8 36.5,6.9 50.8,12.8 12.8,5.3 26,10.7 43.5,12.1 l -54.2,150.5 c 0,0 0,0.1 0,0.1 0,0.1 -0.1,0.2 -0.1,0.4 0,0.1 0,0.2 -0.1,0.2 0,0.1 0,0.2 -0.1,0.3 0,0.1 0,0.2 0,0.3 0,0.1 0,0.2 0,0.2 0,0.1 0,0.2 0,0.4 0,0 0,0.1 0,0.1 0,0.1 0,0.1 0,0.2 0,0.1 0,0.1 0,0.2 0.1,12 7,23.2 19.3,31.4 11.7,7.8 27.2,12.1 43.5,12.1 16.4,0 31.8,-4.3 43.5,-12.1 12.4,-8.2 19.2,-19.4 19.4,-31.4 0,-0.1 0,-0.1 0,-0.2 l 0,0 z M 62.8,74 l 48.5,134.7 -97,0 L 62.8,74 Z m 0,172.6 c -24.4,0 -45.5,-11.4 -50.1,-26.1 l 100.1,0 c -4.5,14.7 -25.5,26.1 -50,26.1 z m 171.2,100.8 0,6.7 -102,0 0,-6.7 c 0,-3.7 3,-6.7 6.7,-6.7 l 88.5,0 c 3.8,0 6.8,3 6.8,6.7 z m -57.7,-18.6 0,-63.6 c 0,-3.7 3,-6.7 6.7,-6.7 3.7,0 6.7,3 6.7,6.7 l 0,63.6 -13.4,0 z m 6.7,-82.2 c -3.7,0 -6.7,-3 -6.7,-6.7 0,-3.7 3,-6.7 6.7,-6.7 3.7,0 6.7,3 6.7,6.7 0,3.7 -3,6.7 -6.7,6.7 z m 0,-208.7 c 0,0 0,0 0,0 0,0 0,0 0,0 -3.7,0 -6.7,-3 -6.7,-6.7 0,-3.7 3,-6.7 6.7,-6.7 0,0 0,0 0,0 0,0 0,0 0,0 3.7,0 6.7,3 6.7,6.7 0,3.7 -3,6.7 -6.7,6.7 z m 168.6,170.8 -97,0 48.6,-134.7 48.4,134.7 0,0 z m -48.4,37.9 c -24.4,0 -45.5,-11.4 -50.1,-26.1 l 100.1,0 c -4.5,14.7 -25.6,26.1 -50,26.1 l 0,0 z"
       id="path6920"
       style="fill:#bfbfbf"
       inkscape:connector-curvature="0" /></g><path
     style="fill:#bfbfbf;fill-opacity:1;stroke:#000000;stroke-width:3.36068654;stroke-miterlimit:4;stroke-dasharray:none;stroke-opacity:0"
     d="m 120.47727,361.425 c -2.11657,-5.46176 -0.53367,-19.5707 2.75956,-24.5968 4.30275,-6.56683 9.88347,-8.35871 26.03277,-8.35871 l 14.81006,0 0,-33.42023 c 0,-26.92366 0.45995,-34.30968 2.3661,-37.99577 2.12089,-4.10137 2.12089,-5.04968 0,-9.15105 -1.30135,-2.51655 -2.3661,-6.07495 -2.3661,-7.90757 0,-5.26122 4.43634,-13.24148 8.59984,-15.4697 l 3.80694,-2.03743 0,-86.24004 0,-86.240051 -4.36275,-3.834758 c -2.3995,-2.109115 -5.01656,-4.969219 -5.81568,-6.355787 -1.25504,-2.177664 -2.93152,-2.324017 -12.30886,-1.074538 -10.43538,1.390454 -17.90227,3.715351 -50.65319,15.771414 -8.241032,3.033639 -18.534782,5.986774 -22.874998,6.562524 -4.340215,0.575749 -7.891301,1.724695 -7.891301,2.55321 0,1.558324 13.242846,39.903796 15.677399,45.394866 7.118531,16.05566 37.05141,103.4546 37.05141,108.18383 0,7.36147 -4.49845,16.40511 -11.5822,23.28476 -5.93735,5.76629 -18.112107,12.90101 -24.124737,14.13771 -2.111818,0.43438 -5.584372,1.23684 -7.716787,1.78325 -7.95243,2.0377 -26.10025,2.47326 -34.942717,0.83863 C 35.600028,255.15608 21.007791,248.35305 13.018296,241.43722 6.7193382,235.98473 -0.26878854,223.25108 -0.29501942,217.17792 -0.30335197,215.24869 11.902754,179.73038 26.829661,138.24832 41.756568,96.766265 53.965079,62.403833 53.959686,61.887354 53.954293,61.370877 51.875215,59.767831 49.339511,58.325028 39.915316,52.962711 34.587569,35.99061 41.215048,32.443692 c 4.182443,-2.238376 7.786277,0.636627 9.698164,7.736829 1.332561,4.948755 2.798504,6.733281 6.959366,8.471802 7.711937,3.222253 25.6239,0.331307 45.724032,-7.379742 23.5475,-9.03357 36.93383,-13.236263 45.75,-14.363403 15.83014,-2.02387 17.83475,-2.55843 17.83475,-4.755905 0,-1.215263 2.09364,-3.757466 4.65254,-5.649342 2.90053,-2.144453 4.65254,-4.828352 4.65254,-7.1271969 0,-5.2253895 2.73939,-9.68690359 5.94778,-9.68690359 4.07829,0 6.459,3.13500679 6.459,8.50545619 0,3.6482683 1.0817,5.4223973 4.55817,7.4759993 2.507,1.480916 4.9966,4.07397 5.53247,5.762339 0.53588,1.688371 1.45069,3.083797 2.03294,3.100948 1.56294,0.04604 18.93735,2.78642 24.32134,3.836088 7.20021,1.40376 9.49194,2.173047 30.47278,10.229054 22.66142,8.701298 30.40229,10.663503 43.49039,11.024217 8.54118,0.235398 9.80746,-0.14975 13.10796,-3.986806 2.00939,-2.336057 3.65344,-5.928609 3.65344,-7.983449 0,-7.390136 9.99219,-8.60205 11.7922,-1.430232 1.49399,5.952562 -2.28128,14.19944 -9.34954,20.423476 l -6.64601,5.852232 15.87923,43.876607 c 8.73358,24.13213 16.04388,44.37069 16.2451,44.97457 0.20122,0.60389 0.87631,2.49374 1.50018,4.19967 14.29898,39.09905 20.20596,57.17919 20.20596,61.84657 0,7.81156 -4.52882,16.08347 -13.16285,24.04205 -20.4328,18.83431 -57.60753,22.76851 -86.09139,9.11105 -14.10759,-6.7643 -26.38072,-22.91949 -26.35902,-34.69655 0.003,-1.60697 12.19668,-36.73005 27.09715,-78.0513 14.90048,-41.321249 26.92426,-75.297061 26.71952,-75.501807 -0.20476,-0.204748 -3.24589,-0.71864 -6.75811,-1.141982 -11.12405,-1.340835 -22.66209,-5.102298 -47.06394,-15.343097 -2.13242,-0.894918 -4.575,-1.8063 -5.42797,-2.025295 -0.85297,-0.218995 -5.4907,-1.450326 -10.30606,-2.736292 -4.81537,-1.285966 -11.79418,-2.500233 -15.50848,-2.698371 -6.02862,-0.321596 -7.46049,0.323732 -13.34436,6.014165 l -6.5911,6.374417 0,86.029642 c 0,85.62391 0.0155,86.03445 3.2087,87.04805 4.21573,1.33803 9.18498,9.64385 9.19228,15.3644 0.003,2.49834 -0.84242,6.88817 -1.87915,9.75517 -1.47937,4.09111 -1.47937,5.86218 0,8.23102 1.33088,2.13106 1.88495,13.05351 1.88495,37.15796 l 0,34.13969 14.63209,0 c 17.7651,0 21.29382,1.21219 26.52059,9.11036 3.37555,5.10079 3.99902,7.65744 3.70267,15.18323 -0.19598,4.97729 -1.03268,9.92198 -1.8593,10.98819 -1.15664,1.49187 -15.40474,1.93856 -61.8345,1.93856 l -60.33154,0 -1.65274,-4.26483 z M 233.8678,349.47574 c 0,-8.44493 -0.91826,-8.59947 -51.09885,-8.59947 -49.90922,0 -48.75119,-0.1977 -49.96208,8.52966 l -0.64553,4.65254 50.85322,-0.42868 50.85324,-0.4287 0,-3.72535 z m -45.33205,-54.56943 c -0.37363,-30.00437 -0.70573,-33.74456 -3.13194,-35.27383 -1.97837,-1.24701 -3.44959,-1.24701 -5.42796,0 -2.42621,1.52927 -2.75831,5.26946 -3.13194,35.27383 l -0.41795,33.56318 6.26387,0 6.26387,0 -0.41795,-33.56318 z M 88.621962,241.71212 c 8.843667,-3.43851 22.728888,-14.7002 22.728888,-18.43441 0,-1.3499 -12.552053,-1.81669 -48.851697,-1.81669 -28.553039,0 -48.851695,0.59036 -48.851695,1.42081 0,0.78144 2.617055,4.12683 5.815678,7.4342 5.12357,5.29777 9.792027,7.90597 25.201271,14.07957 2.132415,0.85433 10.855932,1.39294 19.385593,1.19691 11.805904,-0.27133 17.672338,-1.19775 24.571962,-3.88039 z m 98.649568,2.32154 c 1.02288,-1.23249 1.63174,-3.84954 1.35302,-5.81567 -0.9293,-6.5555 -12.13811,-4.95526 -12.13811,1.73291 0,5.7048 7.18241,8.42374 10.78509,4.08276 z m 134.89549,-0.2976 c 5.59877,-1.39619 13.09267,-4.53377 16.65309,-6.97241 6.4456,-4.41478 12.91209,-11.40653 12.91209,-13.96093 0,-0.73794 -21.98326,-1.3417 -48.85169,-1.3417 -28.55304,0 -48.8517,0.59036 -48.8517,1.42081 0,0.78144 2.61706,4.12683 5.81568,7.4342 13.30342,13.75574 38.88598,19.26447 62.32253,13.42003 z M 109.8,207.28157 C 109.8,205.47936 65.340781,81.11832 63.467995,77.681977 62.905521,76.649902 52.391017,103.86727 40.102431,138.16503 27.813844,172.46278 16.816405,202.44375 15.663676,204.78941 l -2.09587,4.26483 48.116097,0 c 35.057527,0 48.116097,-0.48111 48.116097,-1.77267 z m 240.38136,0.10996 c 0,-1.61718 -20.69726,-61.14882 -23.41546,-67.35 -0.74777,-1.70594 -6.22358,-16.62239 -12.16848,-33.14769 C 308.65253,90.368548 303.57288,76.632204 303.3093,76.368631 302.8085,75.86783 255.57966,206.09502 255.57966,207.97671 c 0,0.59264 21.28538,1.07753 47.30085,1.07753 32.62135,0 47.30085,-0.51602 47.30085,-1.6627 l 0,-1e-5 z M 188.58392,32.124881 c 0.56221,-4.836608 -3.04089,-8.24386 -7.29119,-6.894866 -7.28178,2.311152 -4.81907,12.258284 2.8152,11.37085 3.0067,-0.349509 4.12647,-1.469279 4.47599,-4.475984 z"
     id="path6928"
     inkscape:connector-curvature="0" /><path
     style="fill:#bfbfbf;fill-opacity:1;stroke:#000000;stroke-width:3.36068654;stroke-miterlimit:4;stroke-dasharray:none;stroke-opacity:0"
     d="m 120.51675,362.32807 c -2.0401,-3.81195 -0.89906,-19.71573 1.7727,-24.70797 3.62288,-6.76941 10.53232,-9.13862 26.66945,-9.14481 l 15.12076,-0.006 0,-33.42023 c 0,-26.50599 0.47591,-34.34054 2.30031,-37.86854 2.02989,-3.92538 2.03101,-4.96461 0.009,-8.84035 -1.25991,-2.41563 -2.29506,-6.0313 -2.30031,-8.0348 -0.014,-5.52757 4.32381,-13.49706 8.59028,-15.7804 l 3.80719,-2.03743 0,-85.99145 0,-85.991457 -6.20516,-6.021908 c -4.99126,-4.843846 -7.35464,-6.021908 -12.08096,-6.021908 -8.31063,0 -21.19578,3.591907 -44.96872,12.535641 -11.33359,4.263866 -24.593338,8.520133 -29.466101,9.458369 -4.872761,0.938238 -9.422193,2.20504 -10.109845,2.815115 -0.687653,0.610076 7.901438,26.507789 19.086869,57.550478 11.185427,31.04268 23.088627,64.08864 26.451547,73.43546 6.88169,19.12681 7.49243,26.17818 3.02572,34.93366 C 105.36635,262.22523 44.239133,268.95468 12.683538,241.2485 6.6465084,235.94792 -0.26942454,223.11371 -0.29501942,217.16362 -0.30335197,215.22653 11.979024,179.42007 26.99915,137.5937 42.019275,95.76733 54.057729,61.37458 53.751269,61.165363 53.444809,60.956148 51.284613,59.590709 48.950836,58.131056 43.609692,54.790454 40.058799,49.422497 38.438855,42.239877 c -1.027819,-4.557218 -0.704426,-6.153967 1.741818,-8.600211 4.167364,-4.167364 8.553289,-1.552255 10.687124,6.372198 0.936378,3.477442 3.08484,6.915229 4.943298,7.909847 5.341472,2.858667 26.829126,0.810566 39.255854,-3.741687 31.586271,-11.570917 47.619621,-16.549431 57.621531,-17.892054 10.03985,-1.347714 11.70065,-2.094058 17.44704,-7.840432 3.493,-3.493011 6.35092,-7.79257 6.35092,-9.5545778 0,-4.7868985 2.85412,-9.20312969 5.94778,-9.20312969 3.9653,0 6.459,3.09560119 6.459,8.01797839 0,2.9717671 1.42929,5.3526611 4.63694,7.7241821 2.55032,1.88553 5.00331,4.582584 5.45111,5.993452 0.60692,1.912268 4.75209,3.211621 16.285,5.104732 9.14638,1.501371 22.29205,5.173674 32.15693,8.983199 26.32313,10.165208 39.90167,13.803575 51.51553,13.803575 11.73744,0 14.80412,-1.970586 16.53502,-10.625062 1.69313,-8.465732 10.43833,-10.209268 12.38116,-2.468442 1.48903,5.932762 -2.27179,14.188446 -9.30379,20.423476 l -6.60026,5.852232 26.86948,74.385187 c 17.14707,47.46977 26.86949,76.53195 26.86949,80.31814 0,7.99788 -4.46464,16.21841 -13.16285,24.23614 -26.24797,24.19453 -79.14238,22.59473 -102.23712,-3.09218 -6.13883,-6.82787 -10.21867,-15.81759 -10.21867,-22.51636 0,-1.61965 9.811,-30.15181 21.80221,-63.40482 11.99122,-33.253 24.14907,-67.173663 27.01744,-75.379245 l 5.21522,-14.919238 -7.64445,-0.905374 c -4.20446,-0.497955 -13.74526,-3.096406 -21.20176,-5.774334 -37.92056,-13.618761 -43.9608,-15.499689 -52.7114,-16.414309 -9.32683,-0.974846 -9.56995,-0.900698 -16.50987,5.035098 l -7.04364,6.024515 -0.0509,85.578717 -0.0508,85.57872 4.44772,3.16706 c 5.87851,4.18586 8.57261,10.97732 7.27269,18.3335 -0.56861,3.21776 -0.94489,7.59518 -0.83619,9.7276 0.10871,2.13241 0.52079,20.10286 0.91573,39.93432 l 0.71806,36.0572 15.06515,0.0228 c 16.99525,0.0257 21.07285,1.44592 26.26223,9.14645 2.72897,4.04949 3.53597,7.42452 3.53597,14.78799 0,5.35299 -0.8169,10.3579 -1.86102,11.40202 -1.38345,1.38345 -17.28844,1.86102 -61.97934,1.86102 -60.08132,0 -60.11942,-0.002 -61.91747,-3.36176 l 0,6e-5 z m 113.3273,-12.53443 c -0.0558,-8.20468 0.49415,-8.10769 -48.74834,-8.59572 -30.60615,-0.30335 -46.82209,0.10034 -48.9098,1.21769 -2.05224,1.09833 -3.1232,3.24816 -3.1232,6.26946 l 0,4.59798 50.40254,0 50.40255,0 -0.0237,-3.48941 -2e-5,0 z M 188.89322,297.5535 c 0,-36.75131 -1.39441,-42.34933 -9.30508,-37.35639 -1.92518,1.2151 -2.40787,7.22741 -2.79945,34.87032 l -0.47318,33.40206 6.28885,0 6.28886,0 0,-30.91599 z M 80.297956,243.86132 c 14.419677,-3.39858 33.039314,-16.3807 30.164814,-21.03174 -0.4652,-0.75271 -22.519221,-1.36856 -49.008931,-1.36856 l -48.163107,0 2.698515,4.26483 c 10.286389,16.25699 38.509533,24.21609 64.308709,18.13547 z m 106.982584,0.16149 c 4.11976,-4.964 -1.93116,-12.58943 -7.30469,-9.20543 -5.36955,3.38148 -3.45658,11.4572 2.71398,11.4572 1.49705,0 3.56287,-1.0133 4.59071,-2.25177 z m 130.6444,0.52321 c 11.81131,-2.48427 23.55684,-8.41664 29.04906,-14.67195 2.61701,-2.98061 4.7582,-6.09288 4.7582,-6.91618 0,-0.93032 -18.52321,-1.49687 -48.93938,-1.49687 l -48.93936,0 2.76913,4.68776 c 8.69093,14.71258 37.58862,23.38496 61.30235,18.39724 z M 108.96923,207.30245 C 110.12448,206.1446 64.592955,78.783051 63.023776,78.783051 c -0.592456,0 -2.596436,4.012818 -4.453289,8.917373 -6.79651,17.951796 -43.372182,119.587136 -43.372182,120.521256 0,1.26138 92.499935,0.3546 93.770925,-0.91923 z m 239.3856,0.40413 c 1.59951,-1.01414 -2.96015,-15.25206 -20.72781,-64.72413 -12.52811,-34.88319 -23.29352,-63.984796 -23.92314,-64.670243 -0.62959,-0.685446 -8.66402,19.553113 -17.8543,44.974573 -26.81921,74.1854 -30.13431,83.83526 -29.1418,84.82777 1.45355,1.45356 89.32804,1.06237 91.64705,-0.40797 z M 188.59845,31.974222 c 0.85109,-7.366935 -9.16787,-9.651347 -11.40568,-2.600599 -1.33093,4.1934 2.10672,7.786191 6.91516,7.227242 3.05002,-0.354544 4.12492,-1.462035 4.49052,-4.626643 z"
     id="path6930"
     inkscape:connector-curvature="0" /><path
     style="fill:#bfbfbf;fill-opacity:1;stroke:#000000;stroke-width:3.36068654;stroke-miterlimit:4;stroke-dasharray:none;stroke-opacity:0"
     d="m 120.7105,362.69009 c -2.11329,-3.94871 -1.89916,-15.02469 0.42068,-21.76011 1.05762,-3.07071 4.10972,-6.89295 7.12062,-8.91738 4.60152,-3.09392 7.20668,-3.54311 20.54873,-3.54311 l 15.27913,0 0.009,-33.73093 c 0.008,-24.80557 0.54799,-34.76259 2.04443,-37.62978 1.65763,-3.17604 1.66882,-4.75736 0.0603,-8.52966 -1.08597,-2.54696 -2.00596,-6.27005 -2.04444,-8.27355 -0.10592,-5.51561 4.6197,-14.2754 8.7053,-16.13693 l 3.63185,-1.65464 0,-86.1178 0,-86.117803 -6.52904,-5.90869 c -4.57675,-4.141909 -7.93875,-5.901835 -11.24364,-5.885767 -7.87424,0.03829 -22.72595,4.124119 -45.1009,12.407647 -11.70811,4.33451 -24.857911,8.624745 -29.221777,9.533851 -4.363866,0.909109 -8.770979,1.886481 -9.793585,2.171936 -2.193688,0.612361 1.373727,11.413055 30.391092,92.011986 13.17308,36.58968 20.31988,58.60684 20.31988,62.59945 0,7.86621 -6.33943,19.65544 -13.78818,25.64143 -26.677849,21.4389 -72.291943,21.08371 -97.813337,-0.76165 C 6.9114207,236.27187 -0.26752227,223.51705 -0.29501942,217.21132 -0.30335197,215.30048 11.878184,179.70853 26.775062,138.1181 l 27.08523,-75.618947 -5.418823,-4.45172 C 38.963065,50.260646 35.068062,38.752277 40.180673,33.639666 c 3.901443,-3.901443 8.86989,-1.550832 10.13947,4.797066 0.490553,2.452766 2.527092,5.995744 4.525641,7.873282 5.566401,5.229363 22.834425,3.730523 44.098284,-3.82767 32.093532,-11.407575 43.648482,-14.921705 53.784642,-16.357163 9.13349,-1.29346 11.04765,-2.200374 17.02414,-8.065845 3.70347,-3.634687 6.73359,-7.904861 6.73359,-9.4892745 0,-4.4956157 2.93672,-8.88023099 5.94778,-8.88023099 3.80637,0 6.459,3.04378239 6.459,7.41141839 0,2.2729351 2.53049,6.2191941 6.5911,10.2787051 6.1573,6.155633 7.55969,6.766466 21.30753,9.280804 8.09403,1.480317 23.79636,6.107332 34.89407,10.282258 25.15626,9.463721 36.28029,12.373933 47.29822,12.373933 10.50627,0 15.04107,-2.807608 16.42171,-10.167108 1.65815,-8.838692 10.44665,-10.904602 12.44906,-2.926396 1.44945,5.775078 -2.16148,13.989244 -8.77701,19.965976 -3.36428,3.039428 -6.11688,6.187104 -6.11688,6.994834 0,0.807728 11.86398,34.469427 26.3644,74.803775 16.66567,46.35718 26.36441,75.50788 26.36441,79.24128 0,7.90159 -4.45847,16.1859 -12.89731,23.96455 -8.67445,7.99583 -16.80235,12.195 -29.31446,15.14491 -25.68987,6.05679 -53.92196,0.145 -69.97576,-14.65287 -7.55542,-6.96435 -13.43111,-17.67811 -13.43111,-24.49036 0,-2.36461 11.86398,-37.33049 26.3644,-77.70197 C 280.93602,99.12209 292.8,65.198179 292.8,64.107101 c 0,-1.220772 -3.1154,-2.397052 -8.09989,-3.058268 C 280.24516,60.457864 265.76412,55.916387 252.52003,50.95666 213.51105,36.348359 205.54078,35.453224 195.48432,44.551013 l -6.5911,5.962786 0,85.295251 0,85.29524 3.84485,2.51924 c 6.44558,4.2233 8.70771,10.5572 8.23441,23.0561 -0.23381,6.17446 -0.25577,27.1031 -0.0489,46.50808 l 0.37638,35.28178 15.12076,0.0228 c 17.05456,0.0257 21.12469,1.4403 26.31785,9.14645 2.72897,4.04949 3.53597,7.42452 3.53597,14.78799 0,5.35299 -0.8169,10.3579 -1.86102,11.40202 -1.38345,1.38345 -17.28844,1.86102 -61.97934,1.86102 -57.84999,0 -60.17888,-0.11321 -61.72372,-2.99974 l 0,6e-5 z m 113.1573,-13.09427 c 0,-7.56525 -1.98245,-7.90863 -48.70997,-8.43684 -48.60054,-0.54941 -52.09512,-0.0508 -52.09512,7.43314 l 0,4.69093 50.40254,0 50.40255,0 0,-3.68723 z m -45.15806,-50.98014 c -0.19908,-32.39088 -0.93772,-38.90611 -4.48102,-39.52574 -6.43184,-1.12473 -6.90498,1.14152 -7.50912,35.96823 l -0.57959,33.41132 6.37661,0 6.3766,0 -0.18348,-29.85381 z M 76.559664,244.58888 c 16.567752,-3.03496 39.230446,-18.19395 32.680176,-21.85967 -1.29135,-0.72268 -23.502392,-1.12919 -49.357862,-0.90337 l -47.009944,0.4106 6.626694,7.19086 c 12.576437,13.64713 34.103413,19.36703 57.060936,15.16158 z m 111.391816,-1.80371 c 1.23449,-1.96933 1.23449,-3.45864 0,-5.42797 -2.51211,-4.00742 -7.83776,-4.26756 -9.86382,-0.48181 -3.86653,7.22465 5.51577,12.84596 9.86382,5.90978 z m 128.92718,1.79982 c 11.57695,-2.14012 23.30215,-8.03587 29.9464,-15.05791 4.29879,-4.54319 4.77397,-5.69102 2.8108,-6.78967 -1.29942,-0.72719 -23.51705,-1.13739 -49.37253,-0.91157 l -47.00994,0.4106 6.62669,7.19086 c 12.56982,13.63995 34.15596,19.38037 56.99858,15.15769 z m -224.707652,-36.53977 17.265072,-0.99491 -5.82516,-17.2205 C 96.610425,169.13477 68.542479,91.085556 65.349581,83.435593 63.590214,79.22027 62.790228,78.527332 61.768728,80.333898 60.391134,82.770236 15.198305,206.93046 15.198305,208.27886 c 0,1.11467 56.553926,0.94301 76.972703,-0.23364 z m 255.866922,-0.98275 c 0.66877,-0.66899 -0.65058,-6.94992 -2.93191,-13.95763 C 336.919,167.95608 304.41034,78.815758 303.41994,78.799577 c -1.21515,-0.01985 0.69521,-5.052015 -25.8988,68.220763 -20.97632,57.79476 -21.56313,59.74254 -18.31662,60.79728 4.54953,1.47808 87.30415,0.7746 88.83341,-0.75515 z M 187.0322,35.049153 c 2.79133,-2.791323 2.24338,-7.130309 -1.12833,-8.934789 -5.79505,-3.101422 -10.90787,2.011399 -7.80646,7.806457 1.80449,3.371705 6.14347,3.919654 8.93479,1.128332 z"
     id="path6932"
     inkscape:connector-curvature="0" /><path
     style="fill:#f9f9f9;fill-opacity:1;stroke:#000000;stroke-width:3.36068654;stroke-miterlimit:4;stroke-dasharray:none;stroke-opacity:0"
     d="m 120.7105,362.69009 c -2.11329,-3.94871 -1.89916,-15.02469 0.42068,-21.76011 1.05762,-3.07071 4.10972,-6.89295 7.12062,-8.91738 4.59679,-3.09073 7.21005,-3.54311 20.46768,-3.54311 l 15.19809,0 0.77212,-36.0572 c 0.42467,-19.83146 0.88655,-37.80191 1.02643,-39.93432 0.13988,-2.13242 -0.25678,-6.79662 -0.88141,-10.36491 -0.92101,-5.26112 -0.49874,-7.51844 2.23331,-11.93899 1.85297,-2.99818 4.73015,-5.88322 6.39373,-6.41122 2.95141,-0.93675 3.02455,-3.05212 3.01872,-87.31524 l -0.006,-86.355237 -7.18672,-5.815678 c -4.10096,-3.318614 -8.88351,-5.815678 -11.13859,-5.815678 -6.43059,0 -22.79572,4.575414 -42.79738,11.965429 -10.3037,3.806907 -23.619163,8.174106 -29.589926,9.704888 -6.880679,1.764067 -11.029591,3.649306 -11.330175,5.148356 -0.260832,1.300814 11.07974,34.65402 25.201271,74.11824 17.36784,48.53637 25.67081,73.79743 25.66096,78.07124 -0.018,7.8083 -6.91693,20.42629 -14.2001,25.97162 C 83.63096,264.35074 37.290023,263.5354 13.083819,241.71636 6.4785037,235.76244 -0.30595196,223.07711 -0.23758409,216.80847 -0.21432727,214.67606 11.922743,179.08411 26.733684,137.71525 L 53.662667,62.499153 48.355763,58.094749 C 42.790775,53.476151 39.58228,48.301426 37.87962,41.198619 c -0.751801,-3.136212 -0.193163,-5.064737 2.144169,-7.402069 4.151023,-4.151023 8.384177,-2.013467 10.858207,5.482917 2.830263,8.575777 7.360345,10.663572 20.601041,9.494473 12.515888,-1.1051 16.880134,-2.309649 44.520353,-12.287795 10.66208,-3.849019 23.57288,-7.818682 28.69068,-8.821472 16.91756,-3.314853 20.20261,-4.582675 25.16391,-9.711666 2.70317,-2.794535 5.82382,-7.862966 6.93478,-11.2631785 2.13693,-6.54023546 5.94777,-8.6247981 9.84869,-5.3873198 1.23848,1.0278417 2.25177,3.517841 2.25177,5.5333319 0,2.3158528 2.62385,6.2146664 7.12932,10.5935854 5.67935,5.519812 8.59692,7.131598 14.34534,7.924934 12.03827,1.661398 24.39679,5.163409 44.12175,12.502696 22.3927,8.331902 34.66994,11.405981 45.6769,11.43697 9.30747,0.02621 13.82414,-3.186785 15.37409,-10.936553 1.55502,-7.775046 10.01702,-9.729443 12.20998,-2.820033 1.7548,5.528861 -1.14261,12.693649 -8.17244,20.209113 l -6.98027,7.462475 26.54598,74.089242 c 16.64752,46.46292 26.54596,76.27953 26.54596,79.96321 0,26.94793 -42.63768,47.83978 -80.95545,39.667 -24.22206,-5.16632 -44.66319,-23.19769 -44.66319,-39.39795 0,-2.47611 11.90443,-37.84892 26.45429,-78.60622 14.54987,-40.757307 26.07348,-74.720353 25.60806,-75.473438 -0.46544,-0.753085 -4.15999,-1.866174 -8.21014,-2.47353 -4.05015,-0.607356 -17.78408,-4.910489 -30.51986,-9.562515 -23.70855,-8.660076 -38.81651,-12.89029 -46.18192,-12.930887 -2.55389,-0.01411 -6.85492,2.22148 -11.14478,5.792755 l -6.98589,5.815678 -0.0988,84.971017 -0.0988,84.97102 6.36546,6.05533 6.36547,6.05531 -0.48496,12.10502 c -0.26673,6.65776 -0.33967,28.33076 -0.16208,48.16222 l 0.32273,36.0572 15.12076,0.0228 c 17.05456,0.0257 21.12469,1.4403 26.31785,9.14645 2.72897,4.04949 3.53597,7.42452 3.53597,14.78799 0,5.35299 -0.8169,10.3579 -1.86102,11.40202 -1.38345,1.38345 -17.28844,1.86102 -61.97934,1.86102 -57.84999,0 -60.17888,-0.11321 -61.72372,-2.99974 l 0,6e-5 z m 113.1573,-13.2296 c 0,-7.29004 -3.40948,-7.8088 -51.32287,-7.8088 -47.66825,0 -49.48222,0.29122 -49.48222,7.94413 l 0,3.68723 50.40254,0 50.40255,0 0,-3.82256 z M 188.65661,295.9324 c -0.51172,-28.30752 -0.93775,-32.88666 -3.27747,-35.22638 -2.51039,-2.51041 -2.86133,-2.51729 -5.27494,-0.1036 -2.19926,2.19924 -2.69376,7.46349 -3.30908,35.2264 l -0.72342,32.64067 6.58654,0 6.58654,0 -0.58817,-32.53709 z M 84.727297,242.33074 c 8.556584,-2.54103 24.053143,-12.84381 24.748363,-16.45376 0.28697,-1.49015 -0.93435,-2.84147 -3.08997,-3.41885 -1.96048,-0.52511 -23.279652,-0.9643 -47.375944,-0.97594 -48.968555,-0.0237 -48.656535,-0.10686 -37.483472,9.98739 15.006943,13.55787 39.7828,17.81563 63.201023,10.86116 z m 101.728873,1.50679 c 1.34038,-1.34037 2.43705,-3.03523 2.43705,-3.76634 0,-0.73112 -1.09667,-2.42598 -2.43705,-3.76635 -1.34036,-1.34038 -3.03522,-2.43704 -3.76634,-2.43704 -0.73112,0 -2.42597,1.09666 -3.76634,2.43704 -1.34038,1.34037 -2.43705,3.03523 -2.43705,3.76635 0,0.73111 1.09667,2.42597 2.43705,3.76634 1.34037,1.34038 3.03522,2.43705 3.76634,2.43705 0.73112,0 2.42598,-1.09667 3.76634,-2.43705 z m 140.86194,-2.22462 c 13.1981,-5.01488 25.33168,-15.09359 22.08661,-18.34616 -0.56537,-0.56667 -21.9073,-1.24302 -47.42649,-1.50299 -51.83637,-0.5281 -51.48906,-0.61007 -40.28783,9.50958 7.94867,7.18113 13.83888,10.13503 25.47779,12.77692 11.80361,2.67926 29.51357,1.60416 40.14992,-2.43735 z m -244.3841,-33.57865 26.63825,-1.01049 -8.18451,-23.41061 C 79.781846,121.81256 64.173537,80.292719 62.728211,80.774494 59.939935,81.70392 15.298823,206.58695 17.297166,207.86736 c 2.217327,1.42071 30.676532,1.49308 65.636844,0.1669 z m 265.45226,-1.34587 c 0.29216,-0.27822 -0.64365,-4.57041 -2.07958,-9.53823 -3.6651,-12.67997 -41.07424,-115.764983 -42.57376,-117.316694 -1.29313,-1.338135 -6.5761,12.374969 -30.36475,78.818224 -19.27643,53.84034 -18.47533,48.54671 -7.46789,49.34797 9.57848,0.69726 81.57875,-0.44733 82.48598,-1.31127 z M 187.2806,34.65832 c 2.74227,-3.304218 0.51879,-8.604083 -3.60969,-8.604083 -3.37075,0 -7.18447,2.575539 -7.18447,4.851937 0,1.881323 4.73772,6.003995 6.89969,6.003995 1.11408,0 2.8666,-1.013333 3.89447,-2.251849 z"
     id="path6934"
     inkscape:connector-curvature="0" /></svg>