<?xml version="1.0" encoding="UTF-8" standalone="no"?>
<!-- Generator: Adobe Illustrator 21.1.0, SVG Export Plug-In . SVG Version: 6.00 Build 0)  -->

<svg
   xmlns:dc="http://purl.org/dc/elements/1.1/"
   xmlns:cc="http://creativecommons.org/ns#"
   xmlns:rdf="http://www.w3.org/1999/02/22-rdf-syntax-ns#"
   xmlns:svg="http://www.w3.org/2000/svg"
   xmlns="http://www.w3.org/2000/svg"
   xmlns:sodipodi="http://sodipodi.sourceforge.net/DTD/sodipodi-0.dtd"
   xmlns:inkscape="http://www.inkscape.org/namespaces/inkscape"
   version="1.1"
   id="Capa_1"
   x="0px"
   y="0px"
   viewBox="0 0 366 366"
   style="enable-background:new 0 0 366 366;"
   xml:space="preserve"
   inkscape:version="0.91 r13725"
   sodipodi:docname="noticias-por-whatsapp.svg"><metadata
     id="metadata11"><rdf:RDF><cc:Work
         rdf:about=""><dc:format>image/svg+xml</dc:format><dc:type
           rdf:resource="http://purl.org/dc/dcmitype/StillImage" /><dc:title></dc:title></cc:Work></rdf:RDF></metadata><defs
     id="defs9" /><sodipodi:namedview
     pagecolor="#ffffff"
     bordercolor="#666666"
     borderopacity="1"
     objecttolerance="10"
     gridtolerance="10"
     guidetolerance="10"
     inkscape:pageopacity="0"
     inkscape:pageshadow="2"
     inkscape:window-width="859"
     inkscape:window-height="480"
     id="namedview7"
     showgrid="false"
     inkscape:zoom="0.64480874"
     inkscape:cx="183"
     inkscape:cy="183"
     inkscape:window-x="10"
     inkscape:window-y="34"
     inkscape:window-maximized="0"
     inkscape:current-layer="Capa_1" /><g
     id="g3"
     style="fill:#545454;fill-opacity:1"><path
       d="M366,178.3c0,98.5-80.4,178.3-179.7,178.3c-31.5,0-61.1-8.1-86.8-22.2L0,366l32.4-95.7c-16.4-26.9-25.8-58.4-25.8-92   C6.7,79.8,87.1,0,186.3,0C285.6,0,366,79.8,366,178.3z M186.3,28.4c-83.3,0-151,67.2-151,149.9c0,32.8,10.7,63.2,28.8,87.9   l-18.9,55.7l58-18.4c23.9,15.7,52.4,24.8,83.1,24.8c83.3,0,151.1-67.2,151.1-149.9C337.4,95.7,269.6,28.4,186.3,28.4z M277.1,219.4   c-1.1-1.8-4.1-2.9-8.4-5.1c-4.4-2.2-26.1-12.8-30.1-14.2c-4.1-1.5-7-2.2-9.9,2.2c-2.9,4.4-11.3,14.2-13.9,17.2   c-2.6,2.9-5.1,3.3-9.5,1.1c-4.4-2.2-18.6-6.8-35.4-21.7c-13.1-11.6-21.9-25.9-24.5-30.3c-2.6-4.4-0.3-6.7,1.9-8.9   c2-2,4.4-5.1,6.6-7.7c2.2-2.5,2.9-4.3,4.4-7.3c1.4-2.9,0.7-5.5-0.4-7.7c-1.1-2.2-9.9-23.7-13.6-32.4c-3.7-8.7-7.3-7.3-9.9-7.3   c-2.6,0-5.5-0.4-8.4-0.4c-2.9,0-7.7,1.1-11.7,5.4c-4,4.4-15.4,14.9-15.4,36.4c0,21.5,15.8,42.3,18,45.2c2.2,2.9,30.5,48.5,75.2,66   c44.8,17.5,44.8,11.6,52.9,10.9c8.1-0.7,26.1-10.6,29.7-20.8C278.2,230,278.2,221.2,277.1,219.4z"
       id="path5"
       style="fill:#545454;fill-opacity:1" /></g></svg>