<?xml version="1.0" encoding="UTF-8" standalone="no"?>
<!-- Generator: Adobe Illustrator 21.1.0, SVG Export Plug-In . SVG Version: 6.00 Build 0)  -->

<svg
   xmlns:dc="http://purl.org/dc/elements/1.1/"
   xmlns:cc="http://creativecommons.org/ns#"
   xmlns:rdf="http://www.w3.org/1999/02/22-rdf-syntax-ns#"
   xmlns:svg="http://www.w3.org/2000/svg"
   xmlns="http://www.w3.org/2000/svg"
   xmlns:sodipodi="http://sodipodi.sourceforge.net/DTD/sodipodi-0.dtd"
   xmlns:inkscape="http://www.inkscape.org/namespaces/inkscape"
   version="1.1"
   id="Camada_1"
   x="0px"
   y="0px"
   viewBox="0 0 366 366"
   style="enable-background:new 0 0 366 366;"
   xml:space="preserve"
   inkscape:version="0.91 r13725"
   sodipodi:docname="noticias-por-email.svg"><metadata
     id="metadata19"><rdf:RDF><cc:Work
         rdf:about=""><dc:format>image/svg+xml</dc:format><dc:type
           rdf:resource="http://purl.org/dc/dcmitype/StillImage" /><dc:title></dc:title></cc:Work></rdf:RDF></metadata><defs
     id="defs17" /><sodipodi:namedview
     pagecolor="#ffffff"
     bordercolor="#666666"
     borderopacity="1"
     objecttolerance="10"
     gridtolerance="10"
     guidetolerance="10"
     inkscape:pageopacity="0"
     inkscape:pageshadow="2"
     inkscape:window-width="859"
     inkscape:window-height="480"
     id="namedview15"
     showgrid="false"
     inkscape:zoom="0.64480874"
     inkscape:cx="183"
     inkscape:cy="183"
     inkscape:window-x="0"
     inkscape:window-y="24"
     inkscape:window-maximized="0"
     inkscape:current-layer="Camada_1" /><g
     id="g3"
     style="fill:#545454;fill-opacity:1"><g
       id="g5"
       style="fill:#545454;fill-opacity:1"><path
         d="M361.5,356.6c0,0,0-169,0-225.3c0-2.3-2.9-5.2-5.8-7.4l-58.9-42.7V33.9c0-4.6-3.9-7.8-7.8-7.8h-67.2L187.7,1.2    c-2.3-1.6-6.2-1.6-8.6,0l-34.2,24.9H77.7c-4.6,0-7.8,3.9-7.8,7.8v46.7L10.2,124c-3.5,2.2-5.8,5-5.8,7.4c0,56.7,0,226.8,0,226.8    c0,4.4,3.5,7.5,7.2,7.8c0.2,0,0.4,0,0.6,0h341.4C358.7,365.9,361.5,362,361.5,356.6z M346.7,145.3v197.3L217.9,239.5L346.7,145.3    L346.7,145.3z M340.9,131.6l-44.1,32.1V99.2L340.9,131.6L340.9,131.6z M183,15.9L196.7,26h-27.5L183,15.9L183,15.9z M281.3,41.7    v133.4L183,246.7l-98.2-71.6V41.7C84.8,41.7,281.3,41.7,281.3,41.7z M19.4,145.3l128.8,94.2L19.4,343.2V145.3z M70,164.3    l-45.2-32.9L70,98.5V164.3z M33.4,351.1l127.3-102.5l17.6,12.9c3.4,2.5,5.9,2.5,9.4,0l17.6-12.9l128.1,102.5H33.4L33.4,351.1z"
         id="path7"
         style="fill:#545454;fill-opacity:1" /><rect
         x="130.9"
         y="79.9"
         width="105.2"
         height="14.8"
         id="rect9"
         style="fill:#545454;fill-opacity:1" /><rect
         x="130.9"
         y="127.4"
         width="105.2"
         height="14.8"
         id="rect11"
         style="fill:#545454;fill-opacity:1" /><rect
         x="130.9"
         y="174.9"
         width="105.2"
         height="14.8"
         id="rect13"
         style="fill:#545454;fill-opacity:1" /></g></g></svg>